<?xml version="1.0" standalone="no"?>
<!DOCTYPE svg PUBLIC "-//W3C//DTD SVG 1.1//EN" "http://www.w3.org/Graphics/SVG/1.1/DTD/svg11.dtd" >
<svg xmlns="http://www.w3.org/2000/svg">
<metadata></metadata>
<defs>
<font id="candelabook" horiz-adv-x="1136" >
<font-face units-per-em="2048" ascent="1536" descent="-512" />
<missing-glyph horiz-adv-x="475" />
<glyph unicode="&#xfb01;" horiz-adv-x="1062" d="M55 930q0 61 17 61q20 -2 45 -2q45 0 80 6l2 201q1 101 106 172.5t242 71.5q62 0 121 -16t59 -50q0 -32 -17 -70t-34 -38q-1 0 -2 1t-2 1q-58 28 -133 28q-76 0 -129.5 -31t-53.5 -94v-172q12 0 34.5 -1t33.5 -1q61 0 180 3.5t166 3.5q138 0 141 -21l2 -950 q0 -19 -25 -29t-59 -10q-33 0 -56 8.5t-23 22.5l-2 833q-132 4 -246 4q-125 0 -146 -6v-825q0 -37 -73 -37q-31 0 -58 8t-28 18l2 836q-21 -6 -66 -6q-59 0 -68.5 10t-9.5 70zM788 1212v45q0 26 20 45t46 19h45q26 0 45 -19t19 -45v-45q0 -26 -19 -44.5t-45 -18.5h-45 q-27 0 -46.5 18.5t-19.5 44.5z" />
<glyph unicode="&#xfb02;" horiz-adv-x="1153" d="M66 930q0 61 16 61q20 -2 45 -2q45 0 80 6l2 201q1 60 43 109t110.5 78.5t148 45t161.5 15.5q134 0 217 -39q8 -3 11 -13t5 -46t2 -117q0 -57 -2.5 -363.5t-3.5 -609.5q0 -80 46 -107.5t165 -27.5q16 0 16 -45q0 -52 -14 -64t-57 -12q-35 0 -60 1t-61.5 6.5t-62 15 t-53.5 28t-45 43.5t-28.5 64t-11.5 88v614q-13 0 -75 1t-103 1q-169 0 -190 -6v-825q0 -37 -74 -37q-31 0 -58 8t-28 18l2 836q-21 -6 -66 -6q-59 0 -68 10t-9 70zM367 999q79 5 233 5q105 0 135 -3v316q-54 0 -92 -1.5t-84.5 -6t-77.5 -14.5t-59 -25.5t-41.5 -40.5 t-13.5 -58v-172z" />
<glyph unicode="&#xfb03;" horiz-adv-x="1581" d="M66 930q0 61 16 61q20 -2 45 -2q45 0 80 6l2 201q1 101 106 172.5t242 71.5q116 0 197 -23.5t104 -52.5q107 76 250 76q62 0 121 -16t59 -50q0 -32 -17 -70t-34 -38q-1 0 -2 1t-2 1q-58 28 -133 28q-76 0 -129 -31t-53 -94v-172q82 5 208 5q168 0 334 -9q7 0 15 -7.5 t8 -26.5l2 -928q0 -19 -25 -29t-59 -10q-33 0 -56.5 8.5t-23.5 22.5l-2 837h-90q-287 0 -311 -6v-825q0 -37 -74 -37q-31 0 -58 8t-28 18l2 836q-14 -2 -49 -2t-121.5 4t-128.5 4q-53 0 -94 -6v-825q0 -37 -74 -37q-31 0 -58 8t-28 18l2 836q-21 -6 -66 -6q-59 0 -68 10 t-9 70zM367 999q237 -8 323 -8q48 0 68 4q0 3 -1 20.5t-2 44t-1 50.5q0 95 14 143q-69 54 -188 54q-89 0 -151 -35t-62 -101v-172zM1366 1212v45q0 26 20 45t46 19h45q26 0 44.5 -19t18.5 -45v-45q0 -26 -18.5 -44.5t-44.5 -18.5h-45q-27 0 -46.5 18.5t-19.5 44.5z" />
<glyph unicode="&#xfb04;" horiz-adv-x="1595" d="M55 930q0 61 17 61q20 -2 45 -2q45 0 80 6l2 201q1 101 106 172.5t242 71.5q45 0 86 -4t66.5 -9t56 -15t41 -14.5t35.5 -16.5t26 -13q0 -2 4 -2q109 74 246 74q95 0 205 -45v104q0 5 16 12.5t41.5 13t48.5 5.5q57 0 62 -31l2 -1468q0 -19 -25.5 -29t-60.5 -10 q-33 0 -57.5 8.5t-24.5 22.5l-2 833q-156 6 -273 6q-101 0 -122 -6v-825q0 -37 -74 -37q-31 0 -58 8t-28 18l2 836q-40 -4 -68 -4q-40 0 -123.5 5t-122.5 5q-50 0 -90 -6v-825q0 -37 -73 -37q-31 0 -58 8t-28 18l2 836q-21 -6 -66 -6q-59 0 -68.5 10t-9.5 70zM356 999 q96 7 131 7q47 0 108 -6.5t105 -6.5q35 0 58 2l2 201q0 34 12 64q-84 43 -205 43q-91 0 -151 -33t-60 -99v-172zM918 999q82 5 165 5q68 0 230 -9q-2 59 -2 142q0 37 0.5 63.5t0.5 37.5l1 11v4q-28 28 -78.5 44t-106.5 16q-86 0 -148 -37t-62 -105v-172z" />
<glyph horiz-adv-x="0" />
<glyph horiz-adv-x="682" />
<glyph unicode=" "  horiz-adv-x="475" />
<glyph unicode="&#x09;" horiz-adv-x="475" />
<glyph unicode="&#xa0;" horiz-adv-x="475" />
<glyph unicode="!" horiz-adv-x="657" d="M211 63v46q0 26 18.5 44.5t44.5 18.5h45q27 0 46.5 -18.5t19.5 -44.5v-46q0 -26 -19.5 -44.5t-46.5 -18.5h-45q-26 0 -44.5 18.5t-18.5 44.5zM217 1401q0 19 24.5 29t59.5 10q31 0 55.5 -9t24.5 -22l4 -1071q0 -9 -34.5 -20t-67.5 -11q-57 0 -62 31z" />
<glyph unicode="&#x22;" horiz-adv-x="604" d="M100 1491q8 29 58 29q21 0 45.5 -5.5t40 -13t14.5 -12.5l-18 -420q-3 -65 -66 -65q-21 0 -40 8.5t-21 17.5zM336 1491q8 29 57 29q21 0 46 -5.5t40.5 -13t14.5 -12.5l-19 -420q-3 -65 -65 -65q-21 0 -40.5 8.5t-21.5 17.5z" />
<glyph unicode="#" horiz-adv-x="1611" d="M117 535q0 32 8.5 56.5t21.5 24.5l263 -2l61 236l-205 2q-18 0 -27.5 23t-9.5 55t9 57t22 25l252 -2l106 413q3 13 48 13q41 0 72.5 -13.5t31.5 -40.5l-96 -374h325l109 415q3 13 47 13q41 0 73 -13.5t32 -40.5l-99 -378l271 -3q9 2 18.5 -29t9.5 -63q0 -58 -33 -63h-305 l-61 -238l258 -2q9 2 19 -29t10 -63q0 -58 -33 -63h-295l-113 -439q-5 -22 -45 -22q-35 0 -72.5 16.5t-37.5 34.5v4l104 408h-326l-112 -441q-6 -22 -45 -22q-35 0 -73 16.5t-38 34.5v4l107 410l-215 2q-18 0 -27.5 23t-9.5 55zM571 612h326l61 236h-325z" />
<glyph unicode="$" horiz-adv-x="1099" d="M123 137q0 27 34.5 70t59.5 43q6 0 10 -2q55 -40 106.5 -62.5t131.5 -29.5l33 489q-188 8 -275.5 81.5t-87.5 242.5q0 88 23 161t70 131t126.5 90.5t184.5 32.5h6l8 119q0 6 18 12.5t39 6.5q61 0 66 -39l-8 -107q73 -10 153 -34.5t80 -49.5q0 -28 -22.5 -74.5 t-40.5 -46.5q-2 1 -4 3q-68 41 -175 57l-28 -443q159 -15 250.5 -111t91.5 -249q0 -187 -109.5 -297.5t-281.5 -124.5l-11 -156q-3 -28 -45 -28q-29 0 -54.5 12.5t-25.5 30.5l9 141q-223 14 -328 119q-4 2 -4 12zM313 965q0 -58 15.5 -95t46.5 -53t59.5 -21t71.5 -5l29 448 q-116 -4 -169 -77.5t-53 -196.5zM590 158q108 14 170.5 81.5t62.5 186.5q0 186 -202 213z" />
<glyph unicode="%" horiz-adv-x="1531" d="M98 1130q0 132 87.5 218t213.5 86t212.5 -86t86.5 -218q0 -134 -87.5 -227.5t-211.5 -93.5q-126 0 -213.5 93.5t-87.5 227.5zM242 1124q0 -70 45.5 -122t109.5 -52q65 0 111.5 52t46.5 122t-46.5 122t-111.5 52q-64 0 -109.5 -52t-45.5 -122zM313 76q0 6 2 8l738 1350 q4 4 14 4q34 0 79.5 -21.5t45.5 -50.5q0 -1 -1 -4t-1 -4l-731 -1344q-8 -14 -29 -14q-33 0 -75 27t-42 49zM844 330q0 132 87.5 217.5t213.5 85.5t212.5 -85.5t86.5 -217.5q0 -134 -87.5 -228t-211.5 -94q-126 0 -213.5 94t-87.5 228zM987 324q0 -70 46 -122t110 -52 q65 0 111 52t46 122t-46 122t-111 52q-64 0 -110 -52t-46 -122z" />
<glyph unicode="&#x26;" horiz-adv-x="1290" d="M115 383q0 119 70 223t182 178q-60 86 -88.5 130.5t-54 107t-25.5 113.5q0 43 7.5 81.5t31 81t60.5 73.5t101.5 51t149.5 20q22 0 43 -1.5t57 -8t65.5 -18.5t63 -36t56.5 -56t38 -82.5t15 -113.5q0 -90 -35.5 -158.5t-97.5 -118t-170 -106.5q13 -15 54 -65t58.5 -70.5 t53.5 -62.5t59.5 -68t55.5 -59.5t61 -61.5q7 8 39 52t60.5 84t29.5 40q27 0 67.5 -38t34.5 -54q-13 -35 -31 -62t-53 -66t-43 -48q187 -173 187 -178q0 -21 -46.5 -65t-62.5 -44l-4 3q-78 67 -191 165q-88 -77 -199.5 -120t-219.5 -43q-164 0 -271.5 101t-107.5 300z M276 377q0 -124 67.5 -186t166.5 -62q75 0 156 33.5t145 91.5q-44 40 -94 94.5t-85 97t-92 114t-87 108.5q-177 -112 -177 -291zM356 1130q0 -54 35.5 -119.5t110.5 -164.5q137 77 183 134t46 144q0 54 -16 93.5t-44 60.5t-58.5 30t-65.5 9q-89 0 -140 -40t-51 -147z" />
<glyph unicode="'" horiz-adv-x="391" d="M111 1491q8 29 57 29q21 0 45.5 -5.5t40 -13t14.5 -12.5l-18 -420q-3 -65 -66 -65q-21 0 -40 8.5t-21 17.5z" />
<glyph unicode="(" horiz-adv-x="630" d="M66 778q0 132 25.5 260.5t73.5 244t97.5 207t114.5 191.5q6 9 18 9q25 0 61 -30t36 -48q0 -3 -3 -6q-114 -176 -195 -406t-81 -426q0 -244 101.5 -538t226.5 -478q2 -2 2 -8q0 -19 -37 -47.5t-62 -28.5q-13 0 -16 9q-48 66 -93 142t-95.5 186t-87.5 224t-61.5 257.5 t-24.5 285.5z" />
<glyph unicode=")" horiz-adv-x="657" d="M31 -250q0 6 2 8q124 183 224.5 477.5t100.5 538.5q0 194 -81.5 419.5t-196.5 405.5q-2 2 -2 7q0 18 35.5 47.5t60.5 29.5q14 0 19 -8q67 -102 115.5 -191t97 -204t74.5 -242.5t26 -259.5q0 -142 -24.5 -285.5t-61 -258t-87 -224t-95.5 -185.5t-93 -142q-6 -9 -16 -9 q-25 0 -61.5 28.5t-36.5 47.5z" />
<glyph unicode="*" horiz-adv-x="937" d="M104 1190q0 30 32 71.5t54 41.5q6 0 9 -3l229 -159l-43 252v4q0 17 24 26t58 9q33 0 57.5 -9t24.5 -22l-31 -248l211 147q3 3 8 3q22 0 54 -41.5t32 -71.5q0 -21 -14 -27l-238 -133l234 -166q6 -9 6 -20q0 -32 -35 -71.5t-53 -39.5q-4 0 -4 2l-201 201l33 -264 q2 -9 -33 -20t-69 -11q-57 0 -62 31l43 284l-221 -221q-2 -2 -4 -2q-18 0 -53 39.5t-35 71.5q0 11 6 20l246 168l-250 131q-15 6 -15 27z" />
<glyph unicode="+" horiz-adv-x="974" d="M59 694q0 32 8.5 56t22.5 24h285v281q0 19 24.5 29t59.5 10q31 0 55.5 -9t24.5 -22v-289l311 2q8 0 19.5 -35t11.5 -67q0 -57 -31 -62l-311 -2l2 -307q0 -9 -35 -20t-68 -11q-56 0 -61 31l-2 307h-277q-19 0 -29 24.5t-10 59.5z" />
<glyph unicode="," horiz-adv-x="458" d="M78 -197q0 19 12 43q26 50 78 150.5t78 150.5q5 5 18 5q40 0 88.5 -22t48.5 -54q0 -1 -1 -4.5t-1 -5.5l-204 -312q-10 -10 -37 -10q-31 0 -55.5 15t-24.5 44z" />
<glyph unicode="-" horiz-adv-x="819" d="M86 694q0 32 8.5 56t22.5 24l538 2q8 0 19.5 -35t11.5 -67q0 -57 -31 -62l-530 -2q-19 0 -29 24.5t-10 59.5z" />
<glyph unicode="." horiz-adv-x="581" d="M182 109v16q0 47 34 81t81 34h16q46 0 78.5 -34t32.5 -81v-16q0 -49 -32.5 -81t-78.5 -32h-16q-48 0 -81.5 32t-33.5 81z" />
<glyph unicode="/" horiz-adv-x="804" d="M37 61q0 1 1 3.5t1 3.5l551 1364q3 6 26 6q38 0 78.5 -16t40.5 -44v-6l-547 -1358q-6 -18 -34 -18q-34 0 -75.5 22.5t-41.5 42.5z" />
<glyph unicode="0" horiz-adv-x="1155" d="M106 715q0 371 125 550t347 179q145 0 256.5 -98t170 -263t58.5 -368q0 -121 -15 -224t-51 -194.5t-90.5 -156t-138 -101.5t-190.5 -37q-110 0 -193.5 37.5t-135.5 100.5t-85 156.5t-45.5 194t-12.5 224.5zM268 715q0 -551 297 -551q78 0 136 28.5t93 75.5t56.5 120 t29 150t7.5 177q0 120 -19 220.5t-56.5 179t-100.5 123t-146 44.5q-133 0 -215 -153.5t-82 -413.5z" />
<glyph unicode="1" horiz-adv-x="743" d="M59 1087q0 11 9 17q373 319 387 319q52 9 67 9q51 0 51 -21v-1384q-47 -13 -94 -13q-36 0 -65 13v1171l-267 -201q-2 -2 -4 -2q-16 0 -50 34t-34 58z" />
<glyph unicode="2" horiz-adv-x="1058" d="M104 1239q0 12 11 23q164 176 379 176q29 0 47.5 -0.5t56 -3.5t64 -9t63.5 -18.5t63 -29.5t54.5 -44t45.5 -61t28.5 -82t11.5 -105q0 -99 -36 -180t-93.5 -137t-127 -106.5t-139 -99.5t-127 -102.5t-93.5 -129.5t-36 -168q6 -12 250 -12l402 6q18 -9 18 -72 q0 -30 -5.5 -55.5t-12.5 -26.5h-738q-25 1 -41 13t-23 38t-9 50.5t-2 64.5q0 84 22 156.5t59 125t85 98t101 82.5t105.5 72t100.5 72t85 77.5t59 94t22 115.5v18q0 93 -68 151t-178 58q-56 0 -108.5 -15t-87.5 -37t-62.5 -43.5t-39.5 -36.5l-13 -15q-13 0 -53 35.5t-40 62.5 z" />
<glyph unicode="3" horiz-adv-x="1052" d="M63 164q0 33 38 81t65 48q6 0 10 -2q0 2 5.5 -5t18 -20t30 -29t44.5 -32.5t58 -30.5t74 -22.5t90 -8.5q132 0 206 67.5t74 188.5q0 116 -89 174t-253 58q-52 0 -110 -6q-27 5 -27 51q0 31 13 62.5t26 31.5q0 14 227 14q78 0 126 76t48 205q0 103 -55.5 158t-185.5 55 q-40 0 -75.5 -6t-58.5 -12.5t-52 -22t-41.5 -23.5t-41.5 -29.5t-37 -27.5q-1 0 -2 -1t-2 -1q-15 0 -50.5 39.5t-35.5 65.5q0 22 67.5 61.5t163.5 71.5t165 32q30 0 58 -2t70.5 -11t77.5 -24t72.5 -43t63.5 -66.5t42.5 -97t16.5 -130.5q-1 -12 -2.5 -32t-12.5 -73t-28 -96.5 t-51.5 -86.5t-79.5 -58q9 -1 23 -5t51 -25.5t65 -54t51 -98.5t23 -151q0 -73 -32.5 -142.5t-89 -122t-139.5 -84.5t-177 -32q-213 0 -428 155q-7 7 -7 19z" />
<glyph unicode="4" horiz-adv-x="1077" d="M78 436q0 58 20 82l578 842q40 8 65 8q68 0 68 -35v-803h176q12 -53 12 -102v-43q-4 -14 -43 -16h-145v-367q-47 -12 -94 -12q-39 0 -66 12v367h-557q-14 32 -14 67zM299 518l350 12v549z" />
<glyph unicode="5" horiz-adv-x="1193" d="M78 119l1 7q1 6 4 18t7.5 25t11.5 25.5t15 20.5l18 18t12.5 13t8 8t5 5t4 2t5 0.5t6.5 -1t10 -0.5q13 0 38.5 -15.5t54.5 -33.5t85.5 -33.5t124.5 -15.5q25 0 50.5 1.5t68 9t79.5 20t77.5 37.5t69 57.5t47 83.5t18.5 114q0 87 -27.5 153.5t-76.5 106.5t-112 60t-138 20 q-147 0 -305 -71q-12 -6 -21 -6q-57 0 -57 167q0 115 24 273t41 213q13 39 357 39q96 0 209 -3t178 -7l65 -3q17 -30 17 -77q0 -40 -17 -84l-635 -15q-7 -9 -16.5 -26.5t-26 -76t-16.5 -122.5q0 -22 4 -84q86 21 199 21q69 0 138 -13.5t141 -48.5t126.5 -87t89.5 -137 t35 -192q0 -91 -21.5 -165.5t-55.5 -124t-82.5 -87.5t-96.5 -58.5t-103 -33.5t-96.5 -16.5t-82.5 -3.5l-80 4q-156 0 -379 119z" />
<glyph unicode="6" horiz-adv-x="1054" d="M102 647q0 369 132.5 577t363.5 208q146 0 324 -91q8 -8 8 -24q0 -28 -34.5 -64t-51.5 -36q2 0 -6.5 7t-26 17.5t-41 20.5t-59.5 17t-74 7q-65 0 -133 -29q-42 -12 -90.5 -50.5t-83.5 -108.5q-30 -60 -47 -137.5t-19 -124.5l-2 -48q52 68 131.5 106t167.5 38 q56 0 112 -17.5t110 -57t95.5 -96.5t67 -142.5t25.5 -188.5q0 -102 -35.5 -185.5t-95.5 -135.5t-134 -79.5t-155 -27.5q-80 0 -154 27t-135 78t-100.5 133.5t-46.5 185.5q-13 169 -13 221zM266 522q0 -79 16 -146t49.5 -122t92 -86t137.5 -31q87 0 148 43t87.5 108t26.5 144 q0 88 -33.5 168t-102 134t-157.5 54q-96 0 -172 -48t-84 -107q-8 -74 -8 -111z" />
<glyph unicode="7" horiz-adv-x="1062" d="M121 1405q0 27 20 33h760q33 -8 52.5 -37t19.5 -55q0 -13 -2 -17q-21 -124 -84.5 -304.5t-138 -349t-146.5 -319t-120 -242.5l-48 -91q-7 -13 -44 -22t-77 -9q-69 0 -69 24q0 5 2 7q200 369 338.5 677t208.5 588h-623q-9 0 -29 43t-20 74z" />
<glyph unicode="8" horiz-adv-x="1130" d="M94 412q0 147 34.5 239t121.5 150q5 4 76 41q-65 38 -92 99t-27 155q0 28 6.5 63t31 86t63 91t111.5 69t169 29q174 0 276.5 -99t102.5 -252q0 -165 -119 -241q77 -45 132.5 -162t55.5 -260q0 -102 -40.5 -185t-108.5 -134.5t-152 -79t-174 -27.5t-172.5 26.5t-149 77 t-106 132t-39.5 182.5zM283 385q0 -92 76 -166t198 -74q78 0 139.5 25.5t98 68t55 95t18.5 110.5q0 129 -76 228.5t-196 99.5h-23q-70 -9 -122 -28t-82.5 -51.5t-49 -60.5t-26 -77.5t-9 -79.5t-1.5 -88v-2zM356 1094q0 -90 66.5 -140.5t159.5 -50.5q95 0 165 54.5t70 150.5 q0 25 -2 39q-20 63 -86.5 104t-144.5 41q-53 0 -95 -17t-66 -41.5t-40 -54t-21.5 -50.5t-5.5 -35z" />
<glyph unicode="9" horiz-adv-x="1030" d="M76 1008q0 102 35 183.5t93.5 132t131.5 77t153 26.5t154.5 -26.5t136.5 -76t102.5 -130t47.5 -180.5q6 -94 6 -185q0 -356 -103.5 -568.5t-291.5 -240.5q-46 -14 -138 -14q-67 0 -136.5 23.5t-105.5 46.5l-36 24q-10 7 -10 19q0 26 35 64t51 38h4q125 -71 229 -71 q64 0 117.5 27.5t88 72t61.5 98t41.5 106.5t23.5 97.5t12 72.5l2 27q-52 -68 -131 -105.5t-168 -37.5q-71 0 -140 29.5t-129.5 87t-98 157t-37.5 226.5zM238 1004q0 -137 70 -246t177 -109q19 0 29 2q39 6 71.5 18.5t56 26t41.5 35.5t30 40t20 48.5t12 50.5t6 56t2.5 55.5 t0.5 58.5q0 93 -77 178t-185 85q-64 0 -114.5 -26t-80 -69.5t-44.5 -95.5t-15 -108z" />
<glyph unicode=":" horiz-adv-x="700" d="M225 102v15q0 44 31.5 76t75.5 32h16q43 0 74 -32t31 -76v-15q0 -45 -31 -75.5t-74 -30.5h-16q-45 0 -76 30.5t-31 75.5zM225 877v16q0 44 31.5 75t75.5 31h16q43 0 74 -31t31 -75v-16q0 -45 -31 -76t-74 -31h-16q-45 0 -76 31t-31 76z" />
<glyph unicode=";" horiz-adv-x="528" d="M78 -197q0 19 12 43q26 50 78 150.5t78 150.5q5 5 18 5q40 0 88.5 -22t48.5 -54q0 -1 -1 -4.5t-1 -5.5l-204 -312q-10 -10 -37 -10q-31 0 -55.5 15t-24.5 44zM158 877v16q0 44 31 75t75 31h17q43 0 73.5 -31t30.5 -75v-16q0 -45 -30.5 -76t-73.5 -31h-17q-44 0 -75 31 t-31 76z" />
<glyph unicode="&#x3c;" horiz-adv-x="598" d="M80 514q0 17 4 29l291 379q11 14 31 14q28 0 61 -24t33 -38v-2l-287 -358l281 -344v-2q0 -14 -33.5 -41t-61.5 -27q-16 0 -28 15l-287 370q-4 8 -4 29z" />
<glyph unicode="=" horiz-adv-x="1382" d="M264 449q0 31 8.5 55t22.5 24l760 2q8 0 19 -35t11 -67q0 -56 -30 -61l-752 -2q-19 0 -29 24.5t-10 59.5zM264 920q0 31 8.5 55t22.5 24l760 2q8 0 19 -35t11 -67q0 -56 -30 -61l-752 -2q-19 0 -29 24.5t-10 59.5z" />
<glyph unicode="&#x3e;" horiz-adv-x="612" d="M88 872v2q0 14 32.5 38t59.5 24q22 0 33 -14l291 -379q2 -6 2 -29q0 -25 -2 -29l-287 -370q-12 -15 -31 -15q-27 0 -59.5 27t-32.5 41v2l281 344z" />
<glyph unicode="?" horiz-adv-x="909" d="M70 1288q0 26 54 61.5t138 62t158 26.5q76 0 140 -19.5t117 -61t83.5 -115t30.5 -171.5q0 -84 -22.5 -144.5t-58 -95t-79 -60t-87 -48t-79 -50t-58 -75.5t-22.5 -115q0 -11 4 -34.5t4 -36.5q0 -17 -6 -29q-16 -27 -70 -27q-84 0 -84 39q0 8 2.5 30.5t2.5 37.5 q0 14 -3.5 42t-3.5 40q0 56 22.5 100.5t58.5 75t79.5 57.5t87 55.5t79.5 61t58.5 81t22.5 109.5q0 218 -209 218q-54 0 -101.5 -12t-76 -29.5t-50 -34.5t-30.5 -29l-8 -12q-2 -2 -4 -2q-17 0 -53.5 38t-36.5 66zM223 84v12q0 37 25.5 62.5t62.5 25.5h13q35 0 60.5 -25.5 t25.5 -62.5v-12q0 -38 -25 -63t-61 -25h-13q-37 0 -62.5 25t-25.5 63z" />
<glyph unicode="@" horiz-adv-x="2273" d="M182 461q0 172 53 326.5t148 273t222.5 205.5t282 132.5t320.5 45.5q181 0 347.5 -62.5t287 -167.5t192.5 -249t72 -301q0 -123 -41 -241t-107.5 -208.5t-147.5 -160t-166 -106t-158 -36.5q-101 0 -156 70q-30 -5 -69 -16t-76.5 -18t-85.5 -7q-178 0 -276.5 91.5 t-98.5 250.5q0 57 16 135q54 243 205 388.5t371 145.5q58 0 193 -9.5t135 -18.5l-83 -394q-83 -395 -83 -436q0 -14 14 -21t31 -7q37 0 90 28t111 82.5t107.5 125t81.5 166.5t32 196q0 169 -99 310.5t-268.5 222.5t-370.5 81q-186 0 -348 -65.5t-273.5 -176.5t-175 -260.5 t-63.5 -314.5q0 -166 65.5 -315.5t176.5 -256.5t265 -170t325 -63q119 0 277 46t257 116l39 -162q-109 -71 -281 -118.5t-292 -47.5q-206 0 -391.5 77t-318.5 207.5t-210.5 309.5t-77.5 377zM903 289q0 -101 51.5 -150t145.5 -49q65 0 123 7t83 15l25 7l137 682 q-46 12 -114 12q-47 0 -91 -8t-98.5 -33.5t-99 -67t-84 -115.5t-61.5 -171q-17 -83 -17 -129z" />
<glyph unicode="A" horiz-adv-x="1370" d="M82 49l569 1376q3 9 30 15t58 6q60 0 68 -19l473 -1382q2 -4 2 -10q0 -8 -4.5 -15t-21 -13.5t-42.5 -6.5q-27 0 -47 4t-30 10.5t-16 12.5t-9 12l-2 6l-127 408h-561l-168 -414q-21 -41 -76 -41q-37 0 -66.5 16.5t-29.5 34.5zM485 606h441v10l-215 551z" />
<glyph unicode="B" horiz-adv-x="1052" d="M127 45v1358l9 6t32 14t61.5 17.5t102 13.5t147.5 6q83 0 150 -22t108 -56.5t68.5 -79.5t38 -87t10.5 -82q0 -53 -16.5 -115t-55 -121.5t-90.5 -79.5q6 -2 16.5 -6t40.5 -19.5t57 -34.5t60.5 -52t57.5 -71t40.5 -92.5t16.5 -115.5q0 -214 -126 -332.5t-343 -118.5 q-108 0 -204.5 17.5t-138.5 35.5zM287 152q10 -5 29 -13t81 -21.5t129 -13.5q127 0 213 79t86 237q0 315 -405 315q-31 0 -75.5 -2t-55.5 -2zM287 860q22 -2 57 -2q43 0 83.5 4.5t94.5 20.5t93.5 43.5t67.5 79t28 120.5q0 57 -22 101.5t-58.5 70t-79.5 38t-90 12.5 q-41 0 -84.5 -6t-66.5 -12l-23 -5v-465z" />
<glyph unicode="C" horiz-adv-x="1185" d="M113 719q0 196 83.5 366t228 271.5t312.5 101.5q83 0 167.5 -29t133.5 -66.5t49 -64.5q0 -24 -20 -70t-37 -46q-2 0 -6 4q-55 61 -120.5 87.5t-166.5 26.5q-125 0 -233 -81t-170 -214.5t-62 -285.5q0 -113 37 -220.5t99 -187t148.5 -128t180.5 -48.5q97 0 162 28t127 85 q2 2 6 2q25 0 47.5 -39t22.5 -74q0 -41 -57.5 -79.5t-142 -60.5t-165.5 -22q-168 0 -312.5 102.5t-228 274t-83.5 367.5z" />
<glyph unicode="D" horiz-adv-x="1290" d="M150 1432q0 10 114 18t168 8q386 0 569 -192.5t183 -548.5q0 -187 -39.5 -321.5t-128 -230.5t-235 -143t-355.5 -47q-5 0 -46 -1t-71 -1q-128 0 -157 15zM309 1305l2 -1182q37 -4 107 -4q606 0 606 598q0 301 -151.5 447.5t-436.5 146.5q-60 0 -127 -6z" />
<glyph unicode="E" horiz-adv-x="1073" d="M129 1376q0 64 432 64q90 0 226.5 -3t162.5 -3q10 -4 16.5 -33.5t6.5 -59.5q0 -45 -12 -45q-204 2 -390 2q-79 0 -110.5 -0.5t-81 -3t-68 -9.5t-18.5 -19v-420h559q45 0 45 -70q0 -33 -12 -61.5t-27 -28.5l-565 -2v-502q0 -32 291 -32q79 0 172.5 2.5t147.5 5.5l54 2 q35 0 35 -70q0 -35 -10 -61.5t-25 -26.5q-12 0 -161.5 -4t-255.5 -4q-410 0 -410 53z" />
<glyph unicode="F" horiz-adv-x="1021" d="M147 1378q1 29 155 42.5t366 13.5q177 0 301 -9q6 -37 6 -63q0 -45 -14 -78q-168 10 -332 10q-318 0 -318 -47q-8 -27 -8 -133q0 -53 2 -120t4 -108l2 -40l490 2q16 0 24.5 -21t8.5 -51q0 -32 -9 -59.5t-22 -30.5h-492v-682q-31 -8 -69 -8q-13 0 -27 1t-24 2t-18.5 2 t-13.5 2l-5 1z" />
<glyph unicode="G" horiz-adv-x="1325" d="M106 719q0 196 77.5 366t212 271.5t292.5 101.5q104 -3 201 -43.5t166 -109.5q4 -8 4 -15q0 -27 -33 -69.5t-53 -42.5q-4 0 -6 2q-120 120 -279 120q-114 0 -211.5 -81t-154 -214.5t-56.5 -285.5t56.5 -286.5t154 -216t211.5 -81.5q162 0 269 133t116 334q0 39 -119 39 q-29 0 -63.5 -2.5t-64.5 -5.5t-55.5 -6.5t-41 -6t-16.5 -2.5q-13 0 -20 24.5t-7 57.5q0 31 6.5 53.5t16.5 22.5q13 0 108.5 8.5t159.5 8.5q248 0 248 -103q0 -334 -146 -524.5t-391 -190.5q-118 0 -226.5 61t-186 162t-123.5 237.5t-46 283.5z" />
<glyph unicode="H" horiz-adv-x="1261" d="M133 1409q0 8 36.5 18.5t70.5 10.5q55 0 55 -29v-580h668v580q0 8 36 18.5t68 10.5q55 0 55 -29l4 -1389q0 -9 -36.5 -19.5t-71.5 -10.5q-55 0 -55 30v648h-668l2 -648q0 -9 -36 -19.5t-71 -10.5q-55 0 -55 30z" />
<glyph unicode="I" horiz-adv-x="444" d="M152 1419q0 8 33 19.5t65 11.5q54 0 59 -31l2 -1388q0 -19 -24 -29t-56 -10q-31 0 -54 8.5t-23 22.5z" />
<glyph unicode="J" horiz-adv-x="673" d="M31 70q0 32 16 63q53 0 98.5 15.5t76.5 38.5t56.5 59t40.5 67.5t26 75t16 70.5t7.5 64t2.5 45.5v25.5l-4 819q0 8 37.5 19.5t72.5 11.5q55 0 55 -31v-819q0 -111 -17.5 -202t-45.5 -151.5t-68 -106t-78.5 -70.5t-82.5 -40t-76 -19.5t-64 -4.5l-53 4q-16 29 -16 66z" />
<glyph unicode="K" horiz-adv-x="1241" d="M152 1411q0 8 36 18.5t70 10.5q55 0 55 -29v-489l4 -4l627 516q11 -7 27.5 -19t48 -42.5t39.5 -53.5l-625 -524l717 -684q2 -2 2 -7q0 -21 -48.5 -63.5t-66.5 -42.5q-4 0 -4 2l-721 670v-664h-3q-2 -1 -7 -2t-11.5 -2t-15.5 -2l-18 -2t-20 -1.5t-21 -0.5q-43 0 -63 10z " />
<glyph unicode="L" horiz-adv-x="1095" d="M129 1415h2q10 8 41.5 16.5t60.5 8.5q58 0 58 -31v-1266q1 -7 177 -7h44q154 0 306 4q174 4 173 7q18 0 26 -31q6 -23 6 -46q0 -9 -1 -18q-3 -33 -12 -38q-110 -18 -475 -18q-404 0 -404 31z" />
<glyph unicode="M" horiz-adv-x="1607" d="M125 1415q0 10 32.5 17.5t69.5 7.5q54 0 60 -17l493 -952l535 946q2 8 34.5 16.5t65.5 8.5q62 0 62 -29l2 -1405q1 -5 -13 -9t-35.5 -6.5t-44.5 -2.5q-71 0 -71 22v1108l-490 -844q-23 -26 -65 -26q-35 0 -47 18l-424 770v-1024q0 -10 -29 -17t-63 -7q-70 0 -70 22z" />
<glyph unicode="N" horiz-adv-x="1361" d="M123 31v1353q0 24 26 38t62 14q59 0 82 -33l778 -1106v1106q0 11 33.5 23t66.5 12q62 0 62 -37l2 -1352q0 -27 -29 -41t-67 -14q-53 0 -66 20l-786 1119v-1113q0 -10 -28.5 -18t-61.5 -8q-74 0 -74 37z" />
<glyph unicode="O" horiz-adv-x="1298" d="M88 721q0 196 76.5 365.5t208.5 270.5t286 101q131 0 240 -59.5t181 -160.5t111.5 -234.5t39.5 -282.5q0 -147 -45 -284.5t-121.5 -238.5t-183 -162t-222.5 -61q-154 0 -286 102.5t-208.5 274.5t-76.5 369zM248 700q0 -145 59 -276.5t157 -211t206 -79.5q110 0 203 86 t145.5 227t52.5 302q0 145 -52 271.5t-144 202.5t-201 76q-105 0 -198.5 -73.5t-153.5 -198t-72 -270.5q-2 -18 -2 -56z" />
<glyph unicode="P" horiz-adv-x="1034" d="M121 6v1385q6 3 17 7.5t49 16t79.5 20.5t107.5 16t134 7q214 0 329 -116.5t115 -333.5q0 -236 -138.5 -385.5t-360.5 -149.5q-71 0 -168 23v-490q-34 -10 -80 -10q-21 0 -42 2.5t-31 5.5zM279 1284l4 -631q69 -22 155 -22q48 0 91 8.5t90 33.5t80.5 65t55 109.5 t21.5 160.5q0 161 -76 238t-200 77q-65 0 -120.5 -9.5t-77.5 -19.5z" />
<glyph unicode="Q" horiz-adv-x="1306" d="M76 713q0 198 77 369.5t210.5 273.5t289.5 102q116 0 223 -60.5t184 -161.5t123 -238t46 -285q0 -140 -40 -267.5t-107.5 -221.5t-155.5 -158t-185 -86q79 -168 263 -168q14 -27 14 -62q0 -12 -0.5 -20.5t-0.5 -16t-2.5 -12t-2.5 -8.5t-5 -6t-6 -3.5t-9 -2t-10.5 -0.5 h-14h-15.5q-35 0 -69.5 5t-82.5 23.5t-88.5 48.5t-80 86t-64.5 131q-138 24 -251 130t-176.5 267t-63.5 341zM233 684q0 -141 48 -265t133.5 -202t189.5 -86q91 0 164.5 29.5t120.5 74.5t82.5 108t53 119.5t28 120.5t12.5 99.5t2 67.5q0 144 -49.5 268.5t-140.5 200 t-201 75.5q-107 0 -203 -73t-159 -198.5t-76 -272.5q-5 -58 -5 -66z" />
<glyph unicode="R" horiz-adv-x="1175" d="M156 25v1357q8 3 23 8t63 18.5t97.5 23.5t121.5 18t141 8q213 0 342 -125t129 -323q0 -139 -51.5 -220.5t-167.5 -136.5q39 -9 71.5 -35t55.5 -59t41.5 -80t29.5 -89t19.5 -95.5t12 -90t6 -82.5t2.5 -63v-41q0 -4 -13.5 -9.5t-35.5 -10t-42 -4.5q-48 0 -61 24 q-3 22 -8 90t-10 117t-20.5 118t-38 115.5t-64 85.5t-97.5 50q-20 0 -94 -1t-119 -1q-109 0 -182 6v-594q-53 -16 -88 -16q-63 0 -63 37zM303 1276l4 -524q0 -2 29 -8.5t84.5 -12.5t111.5 -6t106 6.5t101.5 24t88 45.5t60 75.5t23.5 108.5q0 158 -85.5 245t-229.5 87 q-65 0 -138.5 -10.5t-113.5 -20.5z" />
<glyph unicode="S" horiz-adv-x="1009" d="M92 109q0 27 34.5 69.5t59.5 42.5q7 0 11 -2q44 -31 76 -48t92 -31.5t137 -14.5q129 0 210 82t81 219q0 100 -65.5 159.5t-213.5 59.5q-410 0 -410 371q0 88 23 165t70 140.5t127 100t184 36.5q125 0 200.5 -19t157.5 -59q4 -2 4 -14q0 -28 -22.5 -74.5t-40.5 -46.5 q-2 0 -4 2q-49 31 -127.5 48.5t-155.5 17.5q-63 0 -110 -24.5t-74 -67.5t-40 -95t-13 -114q0 -57 16.5 -98.5t41 -64t61 -36t67.5 -17t70 -3.5q185 0 294 -98.5t109 -266.5q0 -202 -127 -327.5t-313 -125.5q-285 0 -406 121q-4 2 -4 13z" />
<glyph unicode="T" horiz-adv-x="1206" d="M55 1376q0 43 17 43q96 15 532 15q438 0 537 -15q12 0 19 -20t7 -47q0 -33 -11 -55.5t-34 -22.5q-153 6 -278 6q-104 0 -142 -6l-16 -1245q1 -10 -11 -17t-30.5 -10.5t-40.5 -3.5q-20 0 -38 3.5t-29.5 10.5t-10.5 17l17 1245q-46 4 -148 4l-301 -4q-16 0 -27.5 33.5 t-11.5 68.5z" />
<glyph unicode="U" horiz-adv-x="1417" d="M141 522v889q0 8 36.5 18.5t70.5 10.5q55 0 55 -29v-899q0 -113 59 -201t153.5 -134t205.5 -48q108 2 192 61t126 145.5t42 180.5l2 889q0 29 54 29q34 0 71 -10.5t37 -18.5v-881q0 -232 -146.5 -387.5t-377.5 -161.5h-6q-163 1 -293 67.5t-205.5 192t-75.5 287.5z" />
<glyph unicode="V" horiz-adv-x="1400" d="M76 1370q0 12 45 42t78 30q22 0 28 -17l428 -1161l547 1161q6 15 25 15q29 0 76 -33.5t47 -46.5v-2l-637 -1350q-18 -12 -54 -12q-31 0 -81 10z" />
<glyph unicode="W" horiz-adv-x="1699" d="M70 1374v2q0 21 42.5 33t88.5 12h16q2 2 47 -174t105 -442t92 -453l319 1059q12 29 78 29q49 0 64 -10q2 2 48.5 -176.5t108.5 -446.5t95 -455l313 1069q6 19 33 19q35 0 78.5 -24.5t43.5 -35.5l-385 -1376q-48 -8 -106 -8q-54 0 -68 12l-12 25l-242 1024l-323 -1053 q-48 -8 -82 -8q-39 0 -53 12l-13 25z" />
<glyph unicode="X" horiz-adv-x="1300" d="M78 59v4q4 22 122.5 192.5t234.5 330.5l116 159l-412 568q-8 11 -8 24q0 31 35 60.5t67 29.5q23 0 31 -14l404 -559l450 573q10 13 31 13q33 0 68.5 -27.5t35.5 -58.5q0 -18 -10 -31l-483 -614l409 -635q5 -5 5 -15q0 -22 -40 -42.5t-75 -20.5q-19 0 -27 8l-389 594 l-418 -600q-10 -10 -28 -10q-36 0 -77.5 24t-41.5 47z" />
<glyph unicode="Y" horiz-adv-x="1230" d="M63 1346v2q0 16 44.5 53t74.5 37q13 0 23 -13l356 -598l504 594q6 9 18 9q28 0 67.5 -46.5t39.5 -64.5v-2l-545 -645v-666q-51 -10 -98 -10q-46 0 -66 10v653z" />
<glyph unicode="Z" horiz-adv-x="1120" d="M82 109q0 38 14 81q457 701 754 1086q-32 14 -217 14q-80 0 -180.5 -2.5t-160.5 -5.5l-61 -2q0 1 -4.5 0t-11.5 2t-13.5 7t-11 15.5t-4.5 28.5q0 40 12 65.5t21.5 31.5t13.5 6l9 -2q159 4 364 4q196 0 395 -6q29 -4 45.5 -32.5t16.5 -62.5q0 -37 -16 -53 q-53 -77 -337.5 -479t-449.5 -647q11 -19 238 -19q92 0 210.5 3.5t190.5 6.5l72 3q24 0 24 -68q0 -33 -6 -57.5t-16 -24.5q-164 -2 -348 -2q-446 0 -490 10q-22 0 -37.5 28t-15.5 71z" />
<glyph unicode="[" horiz-adv-x="706" d="M178 -74v1528q2 36 11.5 66t22 51.5t34.5 38.5t39 28t47 18.5t48 11t51.5 5.5t47.5 2h46h18q13 -1 20.5 -25t7.5 -53q0 -43 -16 -43q-119 0 -165 -27.5t-46 -107.5h-2l2 -1482q0 -80 46 -108t165 -28q16 0 16 -45q0 -52 -14 -63.5t-57 -11.5q-35 0 -60 1t-61.5 6.5 t-61.5 14.5t-53.5 27.5t-45.5 43.5t-28.5 64t-11.5 88z" />
<glyph unicode="\" horiz-adv-x="804" d="M35 1372v6q0 28 40.5 44t78.5 16q23 0 26 -6l551 -1364v-7q0 -20 -40.5 -42.5t-74.5 -22.5q-28 0 -34 18z" />
<glyph unicode="]" horiz-adv-x="643" d="M98 -244q0 45 17 45q119 0 165 28t46 108l2 1482h-2q0 80 -46 107.5t-165 27.5q-7 0 -12 12.5t-5 30.5q0 28 8 52.5t21 25.5q128 0 182 -11q173 -36 183 -210v-1528q0 -49 -11.5 -88t-28.5 -64t-45.5 -43.5t-54 -27.5t-62 -14.5t-61.5 -6.5t-61 -1q-22 0 -32 1.5 t-20.5 8.5t-14 22.5t-3.5 42.5z" />
<glyph unicode="^" horiz-adv-x="1054" d="M88 1174q0 21 14 32l400 264q6 3 28 3q20 0 29 -3l361 -262q14 -11 14 -30q0 -27 -27 -60t-41 -33h-2l-334 256l-378 -260h-2q-14 0 -38 33t-24 60z" />
<glyph unicode="_" horiz-adv-x="1241" d="M70 -240q0 32 8 56t22 24l1018 2q8 0 19.5 -35t11.5 -67q0 -57 -31 -62l-1009 -2q-19 0 -29 24.5t-10 59.5z" />
<glyph unicode="`" horiz-adv-x="655" d="M100 1309q0 31 31 72.5t45 41.5h2l301 -155q41 -23 41 -58q0 -28 -21 -51.5t-36 -23.5l-350 145q-13 8 -13 29z" />
<glyph unicode="a" horiz-adv-x="899" d="M55 289q0 69 35 127t93 96t130.5 59t149.5 21q70 0 147 -23q0 10 1 33t1 35q0 214 -127 219q-96 -3 -147.5 -14.5t-122.5 -40.5q-1 0 -2 -1t-2 -1q-17 0 -31 41t-14 71q0 39 93.5 63.5t180.5 24.5q41 0 69 -2t64.5 -9.5t60.5 -21.5t49.5 -40.5t40.5 -64t24.5 -93.5 t9.5 -127q0 -57 -2 -86q-2 -32 -12.5 -124t-10.5 -142q0 -188 121 -262q-71 -52 -135 -52q-77 0 -121 76q-156 -78 -266 -78q-47 0 -92.5 16.5t-88.5 51t-69.5 99t-26.5 149.5zM209 289q1 -76 31.5 -120t83.5 -50q8 -2 28 -2q19 0 41.5 3t44.5 8.5t41.5 11.5t41 13.5 t33.5 12.5t27.5 11.5t16.5 6.5q-4 50 -4 70q0 35 4 102.5t4 102.5q-75 10 -139 10q-244 0 -254 -180z" />
<glyph unicode="b" horiz-adv-x="1040" d="M119 1405q17 39 102 39q48 0 62 -33v-555q143 143 301 143q149 0 252.5 -124.5t103.5 -307.5q0 -147 -39.5 -262t-109 -186t-160.5 -107.5t-197 -36.5q-223 0 -313 193v1233q0 1 -1 2t-1 2zM279 227q74 -100 221 -100q114 0 196 93t82 261q0 177 -58.5 267t-166.5 90 q-153 0 -270 -117z" />
<glyph unicode="c" horiz-adv-x="917" d="M86 512q0 216 125 351.5t326 135.5q100 0 168 -14.5t124 -60.5v-19q0 -86 -67 -108q-36 34 -90 45.5t-142 11.5q-127 0 -203.5 -99.5t-76.5 -248.5q0 -99 32.5 -182t97 -135t148.5 -52q76 0 125.5 16.5t108.5 65.5q1 0 3 1t3 1q20 0 45 -34t25 -68q0 -41 -57 -75.5 t-126 -51.5t-120 -17q-130 0 -234 74t-159.5 196t-55.5 267z" />
<glyph unicode="d" horiz-adv-x="1013" d="M74 442q0 157 63.5 284t181.5 201t267 74q78 0 157 -20v420v2q0 -1 1.5 1.5t8 7t17 9t32 8t48.5 3.5q25 0 39.5 -8t16.5 -16l1 -7v-1340q-6 -3 -17 -9t-48.5 -21t-79 -26t-107.5 -20.5t-135 -9.5q-211 0 -328.5 124.5t-117.5 342.5zM250 442q0 -162 76 -237.5t200 -75.5 q43 0 81.5 5.5t63 12.5t43 14.5t26.5 12.5l8 6l-3 641q-55 15 -129 15q-50 0 -95 -8.5t-96.5 -34t-88.5 -67t-61.5 -115t-24.5 -169.5z" />
<glyph unicode="e" horiz-adv-x="964" d="M72 524q0 221 101 349t296 128q111 0 185.5 -21.5t118 -67.5t61.5 -110.5t18 -158.5q0 -59 -6 -129q-5 -51 -324 -51q-64 0 -134 2t-108 4l-38 2q0 -93 25.5 -162.5t70.5 -109t99.5 -58t119.5 -18.5q105 0 213 43q1 0 3.5 1t4.5 1q22 0 41 -41t19 -72q0 -24 -35.5 -41 t-92 -25t-106.5 -11t-98 -3q-120 0 -207 44.5t-135 123.5t-70 173t-22 208zM244 600q151 -6 278 -6q172 0 172 14q0 37 -0.5 56.5t-2.5 48.5t-6 43t-11 34.5t-18.5 30.5t-28 22t-38.5 17t-51 8.5t-65 3.5q-64 0 -110.5 -24t-71 -65t-36 -86.5t-11.5 -96.5z" />
<glyph unicode="f" horiz-adv-x="786" d="M55 930q0 61 17 61q20 -2 45 -2q45 0 80 6l2 201q2 103 107.5 182.5t240.5 79.5q62 0 121 -15.5t59 -49.5q0 -32 -17 -70.5t-34 -38.5q-1 0 -2 1t-2 1q-48 23 -113 23q-81 0 -142 -35.5t-61 -102.5v-172q83 5 144 5q29 0 52.5 -1.5t54 -4t57.5 -3.5q10 0 16 -19.5 t6 -47.5q0 -69 -29 -72q-114 6 -202 6q-78 0 -99 -6v-825q0 -37 -73 -37q-31 0 -58 8t-28 18l2 836q-21 -6 -66 -6q-59 0 -68.5 10t-9.5 70z" />
<glyph unicode="g" horiz-adv-x="1046" d="M0 -229q0 95 61.5 178.5t133.5 97.5q-52 45 -84 96l182 156v2v2q-77 54 -121.5 134.5t-44.5 174.5q0 154 112.5 270.5t268.5 116.5q120 0 217 -65q16 -4 45 -4q48 0 96 17t72 35l23 17q2 -22 2 -53q0 -155 -86 -207q14 -54 14 -127q0 -154 -112.5 -263t-270.5 -109 q-62 0 -109 16l-65 -80q3 -3 12 -8.5t65.5 -14t145.5 -8.5q412 0 412 -329v-17q-4 -81 -47 -146t-111.5 -104.5t-151.5 -60t-174 -20.5q-119 0 -227.5 34t-183 105t-74.5 164zM162 -170q0 -15 4 -31q35 -82 130.5 -125t209.5 -43q117 0 201.5 45t87.5 123v8 q0 104 -50.5 144.5t-183.5 40.5q-21 0 -66 -2t-69 -2q-105 0 -172 28q-92 -97 -92 -186zM276 616q0 -98 71 -166.5t171 -68.5q101 0 172.5 68.5t71.5 166.5t-72 174t-172 76q-98 0 -170 -76t-72 -174z" />
<glyph unicode="h" horiz-adv-x="1036" d="M141 8v1399q0 2 0.5 4.5t5 7.5t12.5 9t25.5 8t42.5 6q76 -2 76 -29v-4l4 -498q114 86 250 86q167 0 287.5 -120t128.5 -291v-578q-55 -14 -94 -14q-22 0 -40 3.5t-25 6.5l-7 4v578q-9 103 -100.5 174t-217.5 71q-101 0 -182 -49v-774q-41 -14 -80 -14q-22 0 -43.5 3.5 t-31.5 6.5z" />
<glyph unicode="i" horiz-adv-x="458" d="M154 983q0 8 34.5 19.5t67.5 11.5q56 0 61 -31l2 -950q0 -19 -24.5 -29t-58.5 -10q-33 0 -56.5 8.5t-23.5 22.5zM154 1212v45q0 26 19.5 45t45.5 19h45q26 0 45 -19t19 -45v-45q0 -26 -19 -44.5t-45 -18.5h-45q-26 0 -45.5 18.5t-19.5 44.5z" />
<glyph unicode="j" horiz-adv-x="456" d="M-221 -440q0 34 16 67q66 0 120.5 22t89 55.5t60.5 80.5t39.5 89.5t21.5 90.5t9.5 76t1.5 53v17l-2 862q0 8 39 19.5t74 11.5q57 0 57 -31q2 -107 2 -862q0 -116 -18.5 -211.5t-47.5 -158.5t-70.5 -111t-82 -74.5t-87 -42.5t-80.5 -20.5t-68 -4.5l-58 4q-16 29 -16 68z M137 1194v43q0 27 18.5 46.5t45.5 19.5h41q27 0 46 -19.5t19 -46.5v-43q0 -28 -18.5 -46t-46.5 -18h-41q-28 0 -46 18t-18 46z" />
<glyph unicode="k" horiz-adv-x="1032" d="M168 1413q0 8 36.5 19.5t69.5 11.5q56 0 56 -31l-2 -670q44 15 149.5 79.5t188.5 121.5l84 57q3 3 6 3q21 0 58.5 -37.5t37.5 -61.5t-112.5 -99t-198.5 -120l426 -586v-2q0 -18 -43 -62t-72 -44q-11 0 -18 10l-445 614l-59 -12v-600q-50 -10 -97 -10q-43 0 -63 10z" />
<glyph unicode="l" horiz-adv-x="446" d="M131 1499q0 8 36 19.5t71 11.5q56 0 61 -31l2 -1468q0 -19 -25.5 -29t-60.5 -10q-33 0 -57.5 8.5t-24.5 22.5z" />
<glyph unicode="m" horiz-adv-x="1738" d="M102 10v942q0 2 2 5.5t22.5 12t57.5 13.5h13q32 0 49.5 -8.5t19.5 -16.5l2 -8v-137q25 41 49.5 71t60 58t82 42.5t103.5 14.5q53 0 97 -9.5t89.5 -33t83 -69.5t64.5 -113q56 93 146.5 159t195.5 66q64 0 115 -11t106 -46.5t91.5 -95t60.5 -163.5t24 -245v-428 q0 -14 -80 -14q-34 0 -61 4t-27 10v496q0 325 -254 325q-74 0 -157.5 -39t-126.5 -114q18 -93 18 -240l-2 -428q0 -18 -74 -18q-34 0 -63 5t-29 11v498q0 74 -11.5 130t-37.5 101.5t-74 69.5t-116 24q-73 0 -151 -38.5t-122 -114.5v-668q0 -14 -71 -14q-35 0 -65 4t-30 10z " />
<glyph unicode="n" horiz-adv-x="1085" d="M115 16v934q1 2 4 6t24 11.5t56 11.5q4 0 11.5 1t10.5 1q25 0 40.5 -8.5t18.5 -17.5l3 -9v-133q116 186 309 186q52 0 95.5 -8t91 -29t84 -61.5t66.5 -100.5t46 -153t16 -211l-4 -420q0 -20 -69 -20q-36 0 -66.5 5.5t-30.5 14.5v490q0 323 -254 323q-74 0 -157.5 -38 t-126.5 -113v-668v6q0 -9 -25 -14.5t-57 -5.5q-34 0 -60 5.5t-26 14.5z" />
<glyph unicode="o" horiz-adv-x="1128" d="M92 514q0 139 65 251t175 173t241 61q132 0 242 -61t175 -173t65 -251q0 -129 -38 -233t-104 -170t-153.5 -101t-188.5 -35q-100 0 -186.5 35.5t-152 102t-103 170t-37.5 231.5zM254 508q0 -169 86 -276t227 -107q159 0 243.5 99t84.5 284q0 159 -96 252.5t-232 93.5 q-129 0 -221 -101t-92 -245z" />
<glyph unicode="p" horiz-adv-x="1075" d="M121 -475v1399q6 3 18 8t52.5 18t85 23t115 18t143.5 8q228 0 351.5 -120.5t123.5 -348.5q0 -250 -146 -402.5t-383 -152.5q-85 0 -188 25v-483q0 -2 -0.5 -4t-5 -8.5t-12.5 -11.5t-26 -9t-42 -4q-3 0 -9 0.5t-21 3t-26 7t-20.5 13.5t-9.5 21zM289 813l4 -641 q88 -31 190 -31q50 0 94 9t90.5 35t79 67.5t53.5 113t21 164.5q0 88 -22.5 152t-64 101t-93.5 54t-117 17q-71 0 -130 -10t-82 -20z" />
<glyph unicode="q" horiz-adv-x="1064" d="M70 418q0 144 42 256.5t116.5 182.5t172 106t213.5 36q73 0 134.5 -8.5t96.5 -20.5t59 -23.5t33 -20.5l9 -8v-1401q0 -1 -1.5 -3.5t-7.5 -8.5t-14.5 -11t-25.5 -9t-39 -5q-64 0 -80 31l-6 501q-142 -37 -264 -37q-207 0 -322.5 111t-115.5 332zM244 451q0 -77 20 -135.5 t51 -93t75 -56.5t86.5 -29.5t90.5 -7.5q49 0 101 7.5t79 15.5l27 8l2 669l-14 7q-14 7 -52 16.5t-85 9.5q-49 0 -82 -2q-127 -8 -213 -119.5t-86 -289.5z" />
<glyph unicode="r" horiz-adv-x="837" d="M135 20v924q1 4 4.5 10.5t27 17.5t60.5 11q27 0 44.5 -7.5t21.5 -15.5l4 -8v-141q88 188 283 188q58 0 137.5 -34.5t79.5 -73.5q0 -32 -21 -71.5t-39 -39.5h-2q-10 6 -26.5 15t-61 24t-80.5 15q-81 0 -161 -43t-109 -117v-645q-21 -41 -76 -41q-30 0 -58 12t-28 20z" />
<glyph unicode="s" horiz-adv-x="835" d="M102 94q0 25 31 69t47 44h4q38 -37 106 -61.5t134 -24.5q72 0 118 35t46 108q0 70 -36 108t-120 38q-63 0 -112.5 9t-83 23t-57.5 37t-37 45t-20 53t-9 55.5t-2 57.5q0 97 50.5 170t128.5 108.5t169 35.5q142 0 258 -107q6 -9 1.5 -42t-20.5 -67.5t-30 -29.5 q-81 104 -207 104q-84 0 -136.5 -43t-52.5 -129q0 -77 35.5 -112t143.5 -35q161 0 230 -70t69 -207q0 -78 -26 -137t-71 -93t-100 -50.5t-119 -16.5q-90 0 -177.5 30t-147.5 81q-7 4 -7 14z" />
<glyph unicode="t" horiz-adv-x="702" d="M66 869v22q0 82 18 82q49 -2 86 -2q35 0 39 2v223q0 2 2.5 6t24.5 11.5t61 11.5h12q18 0 30.5 -3t18.5 -6.5t9 -8.5t3.5 -7t0.5 -4v-223q3 1 12 1t28.5 -0.5t34.5 -0.5q30 0 62.5 1t48.5 1t34 1t25 -3t14.5 -7.5t9 -14.5t2.5 -22.5t1 -33.5q0 -84 -18 -84q-92 2 -168 2 q-72 0 -86 -2l2 -455q0 -73 5.5 -111.5t27.5 -70t64.5 -42.5t117.5 -11q16 0 16 -45q0 -28 -8 -52t-21 -24h-45q-174 0 -217 45q-4 3 -11 8.5t-25 30t-32 55.5t-25 88t-11 125v459q-3 0 -18 -1t-25 -1h-20q-62 0 -72 8q-8 8 -8 44v8z" />
<glyph unicode="u" horiz-adv-x="1112" d="M119 553l4 408q0 20 70 20q34 0 65 -6.5t31 -13.5v-478q0 -182 57.5 -260t198.5 -78q70 0 154 46t128 122v656v-6q0 18 82 18q86 0 86 -18l2 -940q-1 -2 -4 -6t-24 -11.5t-56 -11.5q-8 -2 -22 -2q-25 0 -40.5 8.5t-18.5 17.5l-3 9v151q-28 -44 -55.5 -76.5t-66 -64 t-88 -48t-107.5 -16.5q-64 0 -113.5 10.5t-104.5 46t-91 96.5t-60 170t-24 257z" />
<glyph unicode="v" horiz-adv-x="997" d="M70 938v5.5t5 11.5t13.5 14.5t28.5 10.5t47 5q74 0 90 -49l229 -711l275 725l4 5q3 5 7.5 9.5t12 9.5t20 8t27.5 3q37 0 60.5 -10.5t30 -21t6.5 -21.5l-373 -909q-33 -21 -76 -21q-19 0 -40 5t-33 11l-11 5z" />
<glyph unicode="w" horiz-adv-x="1505" d="M98 926q0 11 6 22t29 22t60 11q55 0 73 -35l195 -723l184 701q24 55 105 55q64 0 79 -53l189 -703l172 664l12 37l2 6l6 10t10 11.5t16.5 11.5t25.5 8.5t36 3.5q19 0 34 -3t24 -6.5t15.5 -9.5t9 -10t4 -10t1.5 -6.5v-3.5l-278 -903q-41 -21 -84 -21q-19 0 -43.5 6 t-39.5 12l-15 5l-187 624l-188 -626q-41 -21 -84 -21q-19 0 -43 6t-38 12l-15 5l-271 890q-2 5 -2 11z" />
<glyph unicode="x" horiz-adv-x="1075" d="M80 66q0 8 89 120.5t178.5 221t90.5 108.5l-276 381q-6 9 -6 21q0 25 34.5 45t71.5 20q36 0 47 -20l246 -332l272 340q9 12 31 12q33 0 66.5 -25.5t33.5 -56.5q0 -19 -10 -31l-315 -383l303 -407q4 -4 4 -14q0 -22 -40.5 -43t-74.5 -21q-18 0 -26 8l-281 365l-287 -367 q-8 -8 -28 -8q-36 0 -79.5 23t-43.5 43z" />
<glyph unicode="y" horiz-adv-x="1048" d="M47 946q0 3 7.5 10t35 16t68.5 9q27 0 44.5 -9.5t21.5 -18.5l3 -9l326 -715l278 742q0 16 29 16q35 0 77 -18.5t42 -38.5q0 -6 -2 -8q-124 -324 -216.5 -585.5t-136.5 -379.5t-114 -266q-30 -63 -77 -106.5t-99.5 -62t-92 -25.5t-79.5 -7l-47 2q-17 29 -17 68q0 32 17 65 q78 0 140.5 33.5t98.5 81t60.5 109.5t33.5 109.5t11 90.5l-406 887q-6 4 -6 10z" />
<glyph unicode="z" horiz-adv-x="856" d="M68 84q0 50 32 102q69 115 152 224t140 171.5t132 140.5t99 105q0 11 -107 11q-58 0 -141 -3t-137 -5l-54 -3h-6q-39 0 -39 41q0 80 53 100q1 1 13 3q78 8 215 8q150 0 336 -14q15 -2 31 -29t16 -64q0 -61 -51 -112q-44 -51 -114 -121t-121 -122.5t-126.5 -150 t-148.5 -219.5q5 -8 143 -8l391 8q21 -3 21 -51q0 -35 -9.5 -65.5t-21.5 -30.5q-164 -2 -330 -2q-47 0 -124 -1q-46 -1 -82 -1h-34q-46 0 -74.5 8.5t-41 27t-12.5 52.5z" />
<glyph unicode="{" horiz-adv-x="802" d="M80 715q0 27 9 44t24 17q6 1 16.5 3t37 14.5t46.5 30.5t36.5 53.5t16.5 80.5v496q3 46 18 81.5t34 58.5t51.5 39t56.5 23.5t65.5 11.5t61.5 4.5t60 0.5h18q13 -1 20.5 -25t7.5 -53q0 -43 -16 -43q-119 0 -165 -27.5t-46 -107.5h-2l2 -463q-2 -44 -15 -78.5t-30 -52.5 t-33 -29.5t-28 -14.5l-11 -3q-24 0 -24 -59q0 -25 6.5 -44.5t17.5 -19.5q5 0 12.5 -1.5t26.5 -12.5t34.5 -29t28.5 -57t15 -92v-527q0 -80 46 -107.5t165 -27.5q16 0 16 -45q0 -52 -14 -64t-57 -12q-35 0 -60 1t-61.5 6.5t-62 15t-53.5 28t-45 43.5t-28.5 64t-11.5 88v541 q0 52 -16 90t-38 56t-44.5 28.5t-38.5 12.5l-16 1q-16 1 -24.5 19.5t-8.5 42.5z" />
<glyph unicode="|" horiz-adv-x="704" d="M252 1413q0 8 32 19.5t62 11.5q52 0 57 -31l3 -1376q0 -19 -23 -29t-55 -10q-30 0 -52 8.5t-22 22.5z" />
<glyph unicode="}" horiz-adv-x="776" d="M78 -246q0 45 16 45q119 0 165 27.5t46 107.5v527q2 53 14.5 92t29.5 57t33.5 29t27.5 13l12 1q11 0 17.5 19.5t6.5 44.5q0 59 -24 59q-4 1 -11.5 3t-27 14t-34.5 29.5t-28.5 52.5t-15.5 79l2 463h-2q0 80 -46 107.5t-165 27.5q-16 0 -16 43q0 29 7.5 53t20.5 25 q128 0 181 -11q172 -36 184 -208v-496q0 -45 16 -80.5t38.5 -54t45 -30t38.5 -14.5l16 -3q30 0 30 -61q0 -24 -8 -42.5t-22 -19.5q-6 0 -16.5 -1.5t-37 -12t-47 -28.5t-37 -56t-16.5 -90v-541q0 -49 -11.5 -88t-28.5 -64t-45.5 -43.5t-54 -28t-62 -15t-61.5 -6.5t-61 -1 q-41 0 -55 12t-14 64z" />
<glyph unicode="~" horiz-adv-x="724" d="M20 604q0 9 5 14q0 3 13 15.5t46 26.5t72 14q91 0 204 -74q34 -22 68 -22q13 0 25 3t22.5 8.5t20 12.5t17.5 15t14.5 15.5t12 15.5t8.5 13l6 10l3 5q2 2 8 2q23 0 57.5 -40.5t34.5 -66.5q0 -8 -4 -12q-3 -4 -8 -11t-22.5 -25t-37 -32t-50.5 -25t-64 -11q-38 0 -136 45 t-126 45q-31 0 -55.5 -12.5t-33.5 -24.5l-9 -12q-8 -4 -13 -4q-25 0 -51.5 41.5t-26.5 70.5z" />
<glyph unicode="&#xa1;" horiz-adv-x="649" d="M236 690q0 8 34.5 19.5t67.5 11.5q56 0 61 -31l2 -1063q0 -19 -25 -29t-59 -10q-33 0 -56 8.5t-23 22.5zM236 920v45q0 26 19.5 44.5t45.5 18.5h45q26 0 45 -18.5t19 -44.5v-45q0 -26 -19 -45t-45 -19h-45q-26 0 -45.5 19t-19.5 45z" />
<glyph unicode="&#xa2;" horiz-adv-x="1099" d="M143 520q0 184 108 314t277 163v236q0 8 32.5 19.5t62.5 11.5q52 0 57 -31v-225q28 -1 63.5 -6t78.5 -15t71.5 -29.5t28.5 -44.5q0 -86 -68 -108q-55 52 -174 55v-696q49 4 87.5 22t88.5 58q1 0 3 1t3 1q20 0 45 -34.5t25 -68.5t-46.5 -66.5t-102 -50.5t-101.5 -24v-158 q0 -19 -23 -29t-55 -10q-30 0 -52 8.5t-22 22.5l-2 174q-167 37 -276 179.5t-109 330.5zM307 514q0 -119 61.5 -211t159.5 -125v668q-98 -33 -159.5 -124.5t-61.5 -207.5z" />
<glyph unicode="&#xa3;" horiz-adv-x="1114" d="M74 78q0 60 22 65q84 35 158 35q32 73 51.5 178t22.5 174l4 68v4q-10 -2 -37 -2h-46t-29 3t-19.5 5t-8.5 12.5t-4.5 18t0.5 28.5v15q0 61 17 61h45q57 0 80 2l2 451q0 70 53.5 127t134.5 87t168 30q60 0 116 -15.5t56 -50.5q0 -32 -17 -70t-34 -38q-1 0 -2 1t-2 1 q-58 28 -133 28q-76 0 -129.5 -31t-53.5 -94v-419q66 4 144 4q16 0 164 -8q10 0 16 -20t6 -48q0 -69 -28 -72q-111 6 -201 6q-74 0 -98 -6q-41 -282 -41 -393q0 -98 135 -98q132 0 399 94q19 0 29 -26t10 -58q0 -43 -14 -43q-277 -98 -443 -98q-74 0 -162.5 24.5 t-136.5 24.5q-68 0 -172 -35q-10 0 -16 23t-6 55z" />
<glyph unicode="&#xa4;" horiz-adv-x="1386" d="M139 1309q0 30 46.5 58t72.5 28q6 0 8 -2l158 -203q106 59 235 59q121 0 226 -51l164 211q0 2 6 2q28 0 74.5 -28t46.5 -58q0 -4 -5 -14l-161 -207q131 -137 131 -340q0 -197 -121 -340l149 -195q2 -2 2 -10q0 -24 -40 -58t-70 -34q-14 0 -21 10l-139 182 q-110 -69 -244 -69q-133 0 -249 76l-134 -172q-11 -11 -22 -11q-29 0 -70 34.5t-41 58.5q0 6 4 10l146 188q-113 142 -113 330q0 196 121 330l-156 200q-4 8 -4 15zM340 758q0 -149 87 -255t226 -106q158 0 243 96.5t85 264.5q0 159 -96 252.5t-232 93.5q-129 0 -221 -101 t-92 -245z" />
<glyph unicode="&#xa5;" horiz-adv-x="1310" d="M139 1352v2q0 16 44.5 53t74.5 37q14 0 23 -12l307 -521l448 537q5 8 19 8q28 0 67 -46t39 -64v-3l-489 -587v-88l340 2q8 0 19 -35.5t11 -67.5q0 -56 -30 -61l-340 -2v-168l329 2q8 0 19.5 -35t11.5 -67q0 -57 -31 -62l-329 -2v-166q-52 -10 -99 -10q-45 0 -65 10v166 h-301q-19 0 -29 24.5t-10 59.5q0 32 8.5 56t22.5 24h309v168h-291q-19 0 -29 24.5t-10 59.5q0 32 8.5 56t22.5 24h299v75z" />
<glyph unicode="&#xa6;" horiz-adv-x="458" d="M141 504q0 8 33.5 19.5t65.5 11.5q54 0 59 -31l2 -690q0 -19 -24 -29t-56 -10t-55 8t-23 22zM141 1419q0 8 33.5 19.5t65.5 11.5q54 0 59 -31l2 -690q0 -19 -24 -29t-56 -10q-31 0 -54.5 8.5t-23.5 22.5z" />
<glyph unicode="&#xa7;" horiz-adv-x="937" d="M129 -25q0 27 31 71t47 44h4q43 -32 113 -54t137 -22q77 0 125.5 32t48.5 101q0 95 -44.5 167.5t-127.5 72.5q-186 0 -258 79t-72 253q0 101 105 172q-55 36 -80 125.5t-25 202.5q0 73 52.5 128t131 82t166.5 27q42 0 93 -8t96 -29.5t45 -50.5q0 -32 -22.5 -72.5 t-35.5 -40.5l-2 2q-61 52 -180 52q-80 0 -136 -29t-56 -84q0 -58 7.5 -95t29.5 -69.5t66.5 -47.5t113.5 -15q132 0 203 -80.5t71 -208.5q0 -154 -88 -225q45 -39 66.5 -133t21.5 -172q0 -76 -25.5 -132.5t-70 -89t-99 -48t-118.5 -15.5q-89 0 -177.5 26.5t-150.5 71.5 q-6 3 -6 12zM285 696q0 -89 20 -125q76 -26 154 -26t127 32t49 101q0 37 -9 62.5t-20.5 38.5t-36.5 19.5t-41.5 7.5t-50.5 1q-80 0 -136 -28.5t-56 -82.5z" />
<glyph unicode="&#xa8;" horiz-adv-x="1062" d="M242 1243v12q0 37 25.5 62.5t62.5 25.5h12q35 0 59.5 -25.5t24.5 -62.5v-12q0 -37 -24.5 -61.5t-59.5 -24.5h-12q-37 0 -62.5 24.5t-25.5 61.5zM594 1243v12q0 37 25.5 62.5t62.5 25.5h12q36 0 60 -25.5t24 -62.5v-12q0 -37 -23.5 -61.5t-60.5 -24.5h-12 q-37 0 -62.5 24.5t-25.5 61.5z" />
<glyph unicode="&#xa9;" horiz-adv-x="1492" d="M109 725q0 145 50.5 277.5t136.5 228.5t204 152.5t248 56.5t248 -56.5t203.5 -152.5t136 -228.5t50.5 -277.5t-50.5 -277.5t-136 -228.5t-203.5 -152.5t-248 -56.5t-248 56.5t-204 152.5t-136.5 228.5t-50.5 277.5zM258 721q0 -156 66.5 -286.5t178 -204.5t242.5 -74 q130 0 243.5 75.5t181 207.5t67.5 288q0 117 -40 224.5t-106.5 185.5t-157.5 124t-188 46q-130 0 -242.5 -79.5t-178.5 -214.5t-66 -292zM442 739q0 105 51.5 187t133 124t174.5 42q111 0 209 -64q4 -4 4 -12q0 -25 -20.5 -64t-39.5 -39q-4 0 -6 2q-66 41 -145 41 q-91 0 -153 -59.5t-62 -161.5q0 -100 61.5 -165.5t145.5 -65.5t151 67q2 2 6 2q16 0 35 -34.5t19 -65.5q0 -35 -43 -61t-90 -36.5t-80 -10.5q-139 0 -245 109.5t-106 264.5z" />
<glyph unicode="&#xaa;" horiz-adv-x="811" d="M72 969q0 76 51 136.5t127 91t158 30.5q54 0 90 -10q8 36 8 71q0 63 -31 91t-82 28q-83 0 -178 -55q-2 -2 -8 -2q-17 0 -39.5 37.5t-22.5 58.5q0 22 91 54t145 32q35 0 56 -1t52 -7t49.5 -16.5t40 -32t33 -51.5t19.5 -76t8 -105q0 -9 -1 -28.5t-1 -28.5 q-1 -32 -10 -100.5t-9 -104.5q0 -131 105 -197q-78 -47 -129 -47q-57 0 -98 58q-106 -56 -191 -56q-41 0 -78.5 10.5t-74 34.5t-58.5 71.5t-22 113.5zM217 981q0 -95 76 -102q8 -2 29 -2q57 0 165 32q-2 14 -2 45q0 22 2 64t2 63q0 5 -2 8.5t-5.5 6t-7.5 4.5t-11 3t-12 2 t-13 1h-13h-13.5h-12.5q-182 0 -182 -125z" />
<glyph unicode="&#xab;" horiz-adv-x="970" d="M80 514q0 17 4 29l291 379q11 14 31 14q28 0 61 -24t33 -38v-2l-287 -358l281 -344v-2q0 -14 -33.5 -41t-61.5 -27q-16 0 -28 15l-287 370q-4 8 -4 29zM449 514q0 17 4 29l290 379q11 14 31 14q28 0 61 -24t33 -38v-2l-286 -358l280 -344v-2q0 -14 -33 -41t-61 -27 q-17 0 -29 15l-286 370q-4 8 -4 29z" />
<glyph unicode="&#xac;" horiz-adv-x="1179" d="M90 561q0 29 8.5 50.5t22.5 21.5l811 2h43q47 0 56 -14.5t9 -81.5v-11.5v-12v-13.5l2 -291q0 -9 -28 -20t-56 -11q-46 0 -51 31l-2 281h-776q-19 -1 -29 19.5t-10 49.5z" />
<glyph unicode="&#xad;" horiz-adv-x="1013" d="M90 694q0 32 8.5 56t22.5 24l760 2q8 0 19 -35t11 -67q0 -57 -30 -62l-752 -2q-19 0 -29 24.5t-10 59.5z" />
<glyph unicode="&#xae;" horiz-adv-x="1517" d="M109 725q0 145 50.5 277.5t136.5 228.5t204 152.5t248 56.5t248 -56.5t203.5 -152.5t136 -228.5t50.5 -277.5t-50.5 -277.5t-136 -228.5t-203.5 -152.5t-248 -56.5t-248 56.5t-204 152.5t-136.5 228.5t-50.5 277.5zM258 721q0 -156 66.5 -286.5t178 -204.5t242.5 -74 q130 0 243.5 75.5t181 207.5t67.5 288q0 117 -40 224.5t-106.5 185.5t-157.5 124t-188 46q-130 0 -242.5 -79.5t-178.5 -214.5t-66 -292zM526 422v635q89 35 195 35q56 0 104.5 -12t90.5 -37.5t66 -71.5t24 -109q0 -90 -49.5 -140t-127.5 -60l183 -226v-4q0 -13 -36.5 -35 t-66.5 -22q-23 0 -30 12l-217 266l2 -268q-38 -12 -72 -12q-66 0 -66 49zM664 954l2 -182q16 -2 55 -2q143 0 143 82q0 113 -123 113q-31 0 -77 -11z" />
<glyph unicode="&#xaf;" horiz-adv-x="770" d="M41 1296q0 64 31 64l626 2q10 0 20.5 -16t10.5 -46q0 -50 -31 -55l-618 -2q-21 0 -30 11t-9 42z" />
<glyph unicode="&#xb0;" horiz-adv-x="782" d="M135 1268q0 64 16 112t40 75t59 43t66 21t69 5q41 0 73.5 -5t68 -21t59.5 -43t39.5 -75t15.5 -112q0 -81 -21 -138.5t-58 -87t-77.5 -42.5t-89.5 -13q-260 0 -260 281zM262 1266q0 -43 10 -74t23 -46t34 -23.5t33.5 -9.5t30.5 -1q24 0 39 3.5t35 17t30.5 47.5t10.5 88 q0 41 -9.5 69.5t-21.5 42.5t-32.5 21t-31 7.5t-29.5 0.5h-7h-18t-27.5 -7t-34 -20.5t-24 -43.5t-11.5 -72z" />
<glyph unicode="&#xb1;" horiz-adv-x="1212" d="M188 254q0 32 8.5 56t22.5 24l760 2q8 0 19.5 -35.5t11.5 -67.5q0 -56 -31 -61l-752 -2q-19 0 -29 24.5t-10 59.5zM188 997q0 32 8.5 56t22.5 24h285v281q0 19 24.5 29t59.5 10q31 0 55.5 -9t24.5 -22v-289l311 2q8 0 19.5 -35t11.5 -67q0 -57 -31 -62l-311 -2l2 -307 q0 -9 -35 -20t-68 -11q-56 0 -61 31l-2 307h-277q-19 0 -29 24.5t-10 59.5z" />
<glyph unicode="&#xb2;" horiz-adv-x="948" d="M150 596q0 79 26 140.5t68 100.5t92 70t100.5 55.5t92.5 49t68 60t26 79.5q0 67 -29.5 111.5t-99.5 44.5q-44 0 -84.5 -9t-67 -22t-46.5 -26t-29 -22l-9 -9q-7 -7 -12 -7q-24 0 -57 46.5t-33 68.5q0 2 2 4q13 13 51.5 36.5t118.5 51t157 27.5q54 0 101.5 -11.5t94.5 -40 t75 -86.5t28 -141q0 -70 -25 -122.5t-65.5 -85.5t-89 -59.5l-97 -53t-89 -57.5t-65.5 -81t-25 -116h428q14 -43 14 -72q0 -19 -3.5 -37t-6.5 -26l-4 -8h-555q-29 0 -40 36.5t-11 110.5z" />
<glyph unicode="&#xb3;" horiz-adv-x="894" d="M117 508q0 31 29.5 75t52.5 44q1 0 4 -1t4 -1q2 -3 6.5 -8.5t21 -20.5t36 -27t53 -24.5t71.5 -16.5q91 2 153 45.5t62 118.5q0 74 -59 112t-166 38q-39 0 -88 -6q-7 0 -14 28.5t-7 59.5q0 52 23 55l174 6q48 0 83.5 50t35.5 134q0 134 -168 134q-45 0 -82.5 -12 t-55.5 -23t-50 -35q-11 -10 -15 -10q-17 0 -55.5 42t-38.5 58q0 2 2 4q163 115 295 115q32 0 66 -5t81 -22.5t83 -46.5t61.5 -83.5t25.5 -125.5q0 -210 -110 -248q21 -10 40 -26.5t39.5 -44t33 -71t12.5 -97.5q0 -116 -93 -201.5t-235 -85.5q-165 0 -305 104q-6 6 -6 19z " />
<glyph unicode="&#xb4;" horiz-adv-x="655" d="M100 1210q0 37 41 58l301 155h2q14 0 45 -41.5t31 -72.5q0 -20 -12 -29l-350 -145q-15 0 -36.5 23.5t-21.5 51.5z" />
<glyph unicode="&#xb5;" horiz-adv-x="1273" d="M266 53v946h160v-729q48 -69 133.5 -104t179.5 -35q78 0 139 23t76 59q19 48 19 338q0 88 -2 244t-2 204h170q6 -171 6 -364q0 -459 -47 -524q-52 -74 -138.5 -108t-232.5 -34q-184 0 -301 113l2 -545q0 -27 -25.5 -40t-62.5 -13q-30 0 -52 7t-22 17v545z" />
<glyph unicode="&#xb6;" horiz-adv-x="1316" d="M119 1067q0 104 30.5 178.5t89 117t134 62t174.5 19.5h446q2 2 4 2q23 0 23 -141v-1199q0 -46 18 -80.5t44 -51t52 -25.5t44 -11l18 -1q18 0 18 -46q0 -23 -6 -41t-16 -18q-6 0 -17 0.5t-42 6t-59.5 15t-63.5 30t-60 48t-42 73t-17 101.5q-6 323 -6 676q0 286 6 523 q-38 10 -78 10q-45 0 -78 -10v-1194q0 -67 9.5 -121t24.5 -87.5t33.5 -58.5t37 -37t33.5 -19t25 -8l9 -1q21 -3 21 -51q0 -23 -6.5 -38.5t-18.5 -15.5q-6 0 -17 1t-42 9.5t-59.5 23.5t-63.5 47.5t-60 77t-42 117t-17 161.5v534q-31 -6 -78 -6q-49 0 -95.5 7.5t-105.5 34.5 t-101.5 71t-72.5 125.5t-30 189.5z" />
<glyph unicode="&#xb7;" horiz-adv-x="442" d="M78 571v19q0 51 35.5 86t87.5 35h18q48 0 83.5 -35.5t35.5 -85.5v-19q0 -53 -35 -87.5t-84 -34.5h-18q-53 0 -88 34t-35 88z" />
<glyph unicode="&#xb8;" horiz-adv-x="520" d="M104 -229q0 5 31 11.5t67.5 14t67.5 28.5t31 50q0 24 -26 48t-52 36l-26 12l10 86h121l14 -106q3 -1 8.5 -2.5t19.5 -8t24.5 -15t19 -23t8.5 -31.5q0 -44 -34 -80.5t-81.5 -56t-89.5 -29.5t-67 -10q-14 0 -30 28.5t-16 47.5z" />
<glyph unicode="&#xb9;" horiz-adv-x="849" d="M98 1051q0 10 8 18v-2q301 257 408 350q24 8 55 8q57 0 60 -28v-985q-9 -9 -64 -9q-61 0 -90 11v772q-26 -20 -132 -105t-161 -127q-16 5 -50 38t-34 59z" />
<glyph unicode="&#xba;" horiz-adv-x="970" d="M86 1145q0 165 111 274t270 109q156 0 266.5 -109t110.5 -274q0 -168 -111.5 -288t-265.5 -120q-158 0 -269.5 119.5t-111.5 288.5zM231 1137q0 -104 68 -180t166 -76q97 0 166 76t69 180t-69 180t-166 76q-98 0 -166 -76t-68 -180z" />
<glyph unicode="&#xbb;" horiz-adv-x="1114" d="M193 872v2q0 14 32.5 38t59.5 24q21 0 32 -14l291 -379q2 -6 2 -29q0 -25 -2 -29l-286 -370q-12 -15 -31 -15q-27 0 -59.5 27t-32.5 41v2l280 344zM561 872v2q0 14 32.5 38t59.5 24q22 0 33 -14l291 -379q2 -6 2 -29q0 -25 -2 -29l-287 -370q-12 -15 -31 -15 q-27 0 -59.5 27t-32.5 41v2l281 344z" />
<glyph unicode="&#xbc;" horiz-adv-x="2117" d="M98 1051q0 10 8 18v-2q301 257 408 350q24 8 55 8q57 0 60 -28v-985q-9 -9 -64 -9q-61 0 -90 11v772q-26 -20 -132 -105t-161 -127q-16 5 -50 38t-34 59zM623 53q0 4 2 6l692 1385q0 6 18 6q36 0 78.5 -19.5t42.5 -48.5v-8l-688 -1376q-8 -16 -31 -16q-32 0 -73 25.5 t-41 45.5zM1239 297l12 123q23 33 138 180t219 278l104 130q32 8 57 8q66 0 66 -37v-543h137q8 -45 8 -88q0 -44 -10 -61h-135v-285q-45 -10 -88 -10q-39 0 -59 10v285h-439zM1440 426l248 10v312q-166 -214 -248 -322z" />
<glyph unicode="&#xbd;" horiz-adv-x="2080" d="M98 1051q0 10 8 18v-2q301 257 408 350q24 8 55 8q57 0 60 -28v-985q-9 -9 -64 -9q-61 0 -90 11v772q-26 -20 -132 -105t-161 -127q-16 5 -50 38t-34 59zM604 53q0 4 2 6l692 1371q0 6 19 6q36 0 78.5 -19.5t42.5 -48.5v-8l-688 -1362q-8 -16 -31 -16q-32 0 -73.5 25.5 t-41.5 45.5zM1327 150q0 79 26 140.5t68 100.5t92.5 70t100.5 55.5t92 49t68 60t26 79.5q0 67 -29.5 111t-99.5 44q-44 0 -84.5 -9t-67 -22t-46 -26t-28.5 -22l-9 -9q-6 -6 -13 -6q-24 0 -57 46.5t-33 68.5q0 2 2 4q13 13 52 36.5t119 50.5t157 27q42 0 80 -6t79.5 -25 t71 -48.5t49 -80.5t19.5 -118q0 -70 -25 -122.5t-65.5 -85.5t-89 -60t-97.5 -53.5t-89.5 -57.5t-65.5 -81t-25 -116h428q15 -42 15 -71q0 -19 -4 -37t-8 -27l-3 -8h-555q-29 0 -40 36.5t-11 111.5z" />
<glyph unicode="&#xbe;" horiz-adv-x="2240" d="M168 508q0 31 29.5 75t52.5 44q1 0 4 -1t4 -1q2 -3 6.5 -8.5t21 -20.5t36 -27t53 -24.5t71.5 -16.5q91 2 153.5 45.5t62.5 118.5q0 74 -59 112t-167 38q-38 0 -88 -6q-7 0 -13.5 28.5t-6.5 59.5q0 52 22 55l174 6q48 0 83.5 50t35.5 134q0 134 -168 134q-45 0 -82.5 -12 t-55.5 -23t-50 -35q-11 -10 -15 -10q-17 0 -55.5 42t-38.5 58q0 2 2 4q163 115 295 115q32 0 66 -5t81.5 -22.5t83.5 -46.5t61.5 -83.5t25.5 -125.5q0 -210 -111 -248q21 -10 40 -26.5t39.5 -44t33 -71t12.5 -97.5q0 -116 -93 -201.5t-235 -85.5q-165 0 -305 104q-6 6 -6 19 zM745 53q0 3 3 6l692 1385q0 6 18 6q36 0 78.5 -19.5t42.5 -48.5v-8l-688 -1376q-8 -16 -31 -16q-32 0 -73.5 25.5t-41.5 45.5zM1362 297l12 123q23 33 138 180t219 278l104 130q32 8 57 8q66 0 66 -37v-543h137q8 -45 8 -88q0 -44 -10 -61h-135v-285q-45 -10 -88 -10 q-40 0 -60 10v285h-438zM1563 436h247v312q-182 -235 -247 -312z" />
<glyph unicode="&#xbf;" horiz-adv-x="909" d="M98 -47q0 84 22.5 144.5t58 95t79 60t87 48t79 50t58 75.5t22.5 115q0 9 -4 33.5t-4 37.5q0 21 6 29q17 25 69 25q82 0 82 -37q0 -8 -2 -31.5t-2 -36.5q0 -14 4 -42t4 -40q0 -56 -22.5 -100.5t-58.5 -75t-79 -57.5t-86.5 -55.5t-79.5 -61t-58.5 -81t-22.5 -109.5 q0 -218 209 -218q54 0 101.5 12t76 29t50 34.5t29.5 29.5l9 12q2 2 4 2q17 0 52.5 -38t35.5 -66q0 -26 -54 -61.5t-137.5 -62t-156.5 -26.5q-76 0 -140 19.5t-117 61t-83.5 115t-30.5 171.5zM479 928v12q0 38 25 63t61 25h13q37 0 62.5 -25t25.5 -63v-12q0 -37 -25.5 -62.5 t-62.5 -25.5h-13q-35 0 -60.5 25.5t-25.5 62.5z" />
<glyph unicode="&#xc0;" horiz-adv-x="1388" d="M119 49q0 -18 29.5 -34.5t66.5 -16.5q55 0 76 41l168 414h561l127 -408l3 -6q2 -6 8 -12t16 -12.5t30 -10.5t47 -4q26 0 42.5 6.5t21 13.5t4.5 15l-2 10l-473 1382q-8 19 -68 19q-31 0 -58 -6t-30 -15zM455 1743q0 31 30.5 73t44.5 42h2l302 -156q40 -22 40 -57 q0 -28 -21 -52t-36 -24l-350 145q-12 7 -12 29zM522 606l226 561l215 -551v-10h-441z" />
<glyph unicode="&#xc1;" horiz-adv-x="1388" d="M119 49l569 1376q3 9 30 15t58 6q60 0 68 -19l473 -1382q2 -4 2 -10q0 -8 -4.5 -15t-21 -13.5t-42.5 -6.5q-27 0 -47 4t-30 10.5t-16 12.5t-8 12l-3 6l-127 408h-561l-168 -414q-21 -41 -76 -41q-37 0 -66.5 16.5t-29.5 34.5zM522 606h441v10l-215 551zM565 1645 q0 36 41 57l301 156h2q14 0 45 -42t31 -73q0 -20 -12 -29l-350 -145q-15 0 -36.5 24t-21.5 52z" />
<glyph unicode="&#xc2;" horiz-adv-x="1382" d="M119 49l569 1376q3 9 30 15t58 6q60 0 68 -19l473 -1382q2 -4 2 -10q0 -8 -4.5 -15t-21 -13.5t-42.5 -6.5q-27 0 -47 4t-30 10.5t-16 12.5t-8 12l-3 6l-127 408h-561l-168 -414q-21 -41 -76 -41q-37 0 -66.5 16.5t-29.5 34.5zM473 1690q0 21 14 32l256 133q6 3 29 3 q20 0 29 -3l248 -135q14 -11 14 -30q0 -27 -27 -60t-41 -33h-2l-221 129l-235 -129h-2q-14 0 -38 33t-24 60zM522 606h441v10l-215 551z" />
<glyph unicode="&#xc3;" horiz-adv-x="1388" d="M119 49l569 1376q3 9 30 15t58 6q60 0 68 -19l473 -1382q2 -4 2 -10q0 -8 -4.5 -15t-21 -13.5t-42.5 -6.5q-27 0 -47 4t-30 10.5t-16 12.5t-8 12l-3 6l-127 408h-561l-168 -414q-21 -41 -76 -41q-37 0 -66.5 16.5t-29.5 34.5zM444 1733q0 9 5 14q0 3 13 15t46 26t72 14 q93 0 204 -73q36 -23 68 -23q13 0 25 3t22.5 8.5t20 12.5t17.5 15t14.5 15.5t12 15.5t8.5 13l6 10l3 5q2 2 8 2q23 0 57.5 -40t34.5 -66q0 -8 -4 -12q-3 -4 -8 -11t-22.5 -25.5t-37 -32t-50.5 -25t-64 -11.5q-38 0 -136 45t-126 45q-31 0 -55.5 -12.5t-33.5 -24.5l-9 -12 q-8 -4 -13 -4q-25 0 -51.5 42t-26.5 71zM522 606h441v10l-215 551z" />
<glyph unicode="&#xc4;" horiz-adv-x="1388" d="M119 49l569 1376q3 9 30 15t58 6q60 0 68 -19l473 -1382q2 -4 2 -10q0 -8 -4.5 -15t-21 -13.5t-42.5 -6.5q-27 0 -47 4t-30 10.5t-16 12.5t-8 12l-3 6l-127 408h-561l-168 -414q-21 -41 -76 -41q-37 0 -66.5 16.5t-29.5 34.5zM492 1677v13q0 37 25.5 62.5t62.5 25.5h12 q35 0 59.5 -25.5t24.5 -62.5v-13q0 -37 -24.5 -61.5t-59.5 -24.5h-12q-37 0 -62.5 24.5t-25.5 61.5zM522 606h441v10l-215 551zM844 1677v13q0 37 25.5 62.5t62.5 25.5h12q36 0 60 -25.5t24 -62.5v-13q0 -37 -23.5 -61.5t-60.5 -24.5h-12q-37 0 -62.5 24.5t-25.5 61.5z" />
<glyph unicode="&#xc5;" horiz-adv-x="1345" d="M94 49q0 -18 29.5 -34.5t66.5 -16.5q55 0 76 41l168 414h561l127 -408l3 -6q3 -6 8.5 -12t16 -12.5t30.5 -10.5t47 -4q26 0 42 6.5t20.5 13.5t4.5 15l-2 10l-473 1382q-8 19 -67 19q-31 0 -58 -6t-30 -15zM498 606l225 561l215 -551v-10h-440zM508 1792q0 99 70.5 169.5 t169.5 70.5q100 0 169.5 -70t69.5 -170q0 -98 -69.5 -168t-169.5 -70q-98 0 -169 70t-71 168zM625 1792q0 -50 36.5 -85.5t88.5 -35.5q51 0 87.5 35.5t36.5 85.5q0 52 -36.5 88.5t-87.5 36.5q-52 0 -88.5 -36.5t-36.5 -88.5z" />
<glyph unicode="&#xc6;" horiz-adv-x="2068" d="M72 49l569 1376q29 21 72 21q18 0 39 -5t33 -9l12 -5l295 -866v815q0 64 432 64q90 0 226 -3t163 -3q10 -4 16 -33t6 -60q0 -45 -12 -45q-203 2 -389 2q-79 0 -111 -0.5t-81 -3t-68 -9.5t-19 -19v-420h560q45 0 45 -70q0 -33 -12 -61.5t-27 -28.5l-566 -2v-502 q0 -32 291 -32q79 0 173 2.5t148 5.5l54 2q35 0 35 -70q0 -35 -10 -61.5t-25 -26.5h-41q-34 0 -190.5 -3t-249.5 -3q-320 0 -330 33l-137 424h-561l-168 -414q-20 -39 -68 -39q-25 0 -44.5 4.5t-30.5 11t-18 14t-9 12t-2 7.5zM475 606h440v10l-215 551z" />
<glyph unicode="&#xc7;" horiz-adv-x="1230" d="M113 719q0 146 49.5 279t133 229t199 152.5t242.5 56.5q83 0 167.5 -29t133.5 -66.5t49 -64.5q0 -24 -20 -70.5t-37 -46.5q-2 0 -6 4q-55 61 -120.5 88t-166.5 27q-126 0 -233 -75t-169.5 -204t-62.5 -280t62.5 -280t169.5 -204t233 -75q97 0 162 27.5t127 84.5q2 2 6 2 q25 0 47.5 -39t22.5 -73q0 -41 -57.5 -79.5t-142 -60.5t-165.5 -22h-39l9 -72q3 -1 8.5 -2.5t19 -8t24 -15t19 -23t8.5 -31.5q0 -44 -34 -80.5t-81.5 -56t-89.5 -29.5t-67 -10q-14 0 -29.5 28.5t-15.5 47.5q0 5 31 11.5t67.5 14.5t67.5 29t31 50q0 24 -26 48t-52 36l-27 12 l6 78q-199 65 -326.5 256t-127.5 436z" />
<glyph unicode="&#xc8;" horiz-adv-x="1073" d="M98 1376l2 -1329q0 -53 410 -53q106 0 256 4t162 4q15 0 25 26.5t10 61.5q0 70 -35 70q-197 -10 -375 -10q-291 0 -291 32v502l565 2q15 0 27 28.5t12 61.5q0 70 -45 70h-559v420q0 12 19 19t68 9.5t81 3t111 0.5l389 -2q12 0 12 45q0 31 -6 60t-16 33q-26 0 -163 3 t-227 3q-432 0 -432 -64zM379 1743q0 31 31 73t45 42h2l301 -156q41 -23 41 -57q0 -28 -21.5 -52t-36.5 -24l-350 145q-12 7 -12 29z" />
<glyph unicode="&#xc9;" horiz-adv-x="1087" d="M113 1376q0 64 432 64q89 0 225.5 -3t163.5 -3q10 -4 16 -33t6 -60q0 -45 -12 -45q-203 2 -389 2q-79 0 -111 -0.5t-81 -3t-68 -9.5t-19 -19v-420h560q45 0 45 -70q0 -33 -12 -61.5t-27 -28.5l-566 -2v-502q0 -32 291 -32q79 0 173 2.5t148 5.5l54 2q35 0 35 -70 q0 -35 -10 -61.5t-25 -26.5q-12 0 -162 -4t-256 -4q-409 0 -409 53zM471 1645q0 36 41 57l301 156h2q14 0 45 -42t31 -73q0 -20 -12 -29l-351 -145q-15 0 -36 24t-21 52z" />
<glyph unicode="&#xca;" horiz-adv-x="1067" d="M109 1376q0 64 432 64q89 0 226 -3t163 -3q10 -4 16 -33t6 -60q0 -45 -12 -45q-203 2 -389 2q-79 0 -111 -0.5t-81 -3t-68 -9.5t-19 -19v-420h559q23 0 34.5 -20t11.5 -50q0 -33 -12 -61.5t-27 -28.5l-566 -2v-502q0 -32 291 -32q79 0 173 2.5t148 5.5l54 2q35 0 35 -70 q0 -35 -10 -61.5t-25 -26.5q-12 0 -162 -4t-256 -4q-409 0 -409 53zM260 1690q0 21 14 32l256 133q6 3 29 3q20 0 29 -3l248 -135q14 -11 14 -30q0 -27 -27 -60t-41 -33h-2l-221 129l-235 -129h-2q-14 0 -38 33t-24 60z" />
<glyph unicode="&#xcb;" horiz-adv-x="1060" d="M94 1376q0 64 432 64q90 0 226 -3t163 -3q10 -4 16.5 -33.5t6.5 -59.5q0 -45 -12 -45q-203 2 -389 2q-79 0 -111 -0.5t-81 -3t-68 -9.5t-19 -19v-420h559q45 0 45 -70q0 -33 -12 -61.5t-27 -28.5l-565 -2v-502q0 -32 291 -32q79 0 173 2.5t148 5.5l54 2q34 0 34 -70 q0 -35 -9.5 -61.5t-24.5 -26.5q-12 0 -162 -4t-256 -4q-410 0 -410 53zM295 1677v13q0 37 25.5 62.5t62.5 25.5h12q35 0 59.5 -25.5t24.5 -62.5v-13q0 -37 -24.5 -61.5t-59.5 -24.5h-12q-37 0 -62.5 24.5t-25.5 61.5zM647 1677v13q0 37 25.5 62.5t62.5 25.5h13 q36 0 59.5 -25.5t23.5 -62.5v-13q0 -37 -23.5 -61.5t-59.5 -24.5h-13q-37 0 -62.5 24.5t-25.5 61.5z" />
<glyph unicode="&#xcc;" horiz-adv-x="454" d="M-43 1743q0 31 31 73t45 42h2l301 -156q41 -23 41 -57q0 -28 -21.5 -52t-36.5 -24l-350 145q-12 7 -12 29zM150 1419l2 -1396q0 -14 23 -22.5t54 -8.5q32 0 56 10t24 29l-2 1388q-5 31 -59 31q-32 0 -65 -11.5t-33 -19.5z" />
<glyph unicode="&#xcd;" horiz-adv-x="559" d="M186 1645q0 36 41 57l301 156h2q14 0 45 -42t31 -73q0 -20 -12 -29l-350 -145q-15 0 -36.5 24t-21.5 52zM193 1419q0 8 33 19.5t65 11.5q54 0 59 -31l2 -1388q0 -19 -24 -29t-56 -10q-31 0 -54 8.5t-23 22.5z" />
<glyph unicode="&#xce;" horiz-adv-x="696" d="M74 1690q0 21 14 32l256 133q6 3 29 3q19 0 28 -3l248 -135q15 -12 15 -30q0 -27 -27 -60t-41 -33h-2l-221 129l-236 -129h-2q-14 0 -37.5 33t-23.5 60zM276 1419q0 8 33.5 19.5t65.5 11.5q54 0 59 -31l2 -1388q0 -19 -24 -29t-56 -10q-31 0 -54 8.5t-23 22.5z" />
<glyph unicode="&#xcf;" horiz-adv-x="608" d="M49 1677v13q0 37 25.5 62.5t62.5 25.5h13q35 0 59 -25.5t24 -62.5v-13q0 -37 -24 -61.5t-59 -24.5h-13q-37 0 -62.5 24.5t-25.5 61.5zM233 1419q0 8 33.5 19.5t65.5 11.5q54 0 59 -31l2 -1388q0 -19 -24 -29t-56 -10q-31 0 -54 8.5t-23 22.5zM401 1677v13q0 37 25.5 62.5 t62.5 25.5h13q36 0 60 -25.5t24 -62.5v-13q0 -37 -23.5 -61.5t-60.5 -24.5h-13q-37 0 -62.5 24.5t-25.5 61.5z" />
<glyph unicode="&#xd0;" horiz-adv-x="1411" d="M76 745q0 32 8 56t22 24h170v582q0 10 115.5 18.5t167.5 8.5q389 0 570.5 -182t181.5 -535q0 -186 -39.5 -317.5t-128.5 -222.5t-234.5 -134t-355.5 -43q-4 0 -55.5 -1t-87.5 -1q-131 0 -131 14l-3 650h-161q-19 0 -29 24t-10 59zM436 662l2 -515q41 -4 119 -4 q293 0 443.5 136.5t150.5 437.5q0 571 -573 571q-44 0 -142 -8v-455l410 2q8 0 19.5 -35t11.5 -67q0 -56 -31 -61z" />
<glyph unicode="&#xd1;" horiz-adv-x="1376" d="M102 31v1353q0 24 26 38t62 14q59 0 82 -33l779 -1106v1106q0 11 33.5 23t66.5 12q61 0 61 -37l2 -1352q0 -27 -29 -41t-67 -14q-52 0 -65 20l-787 1119v-1113q0 -10 -28.5 -18t-61.5 -8q-74 0 -74 37zM408 1733q0 10 4 14q0 3 13 15t46 26t72 14q94 0 205 -73 q36 -23 67 -23q13 0 25 3t22.5 8.5t20 12.5t17.5 15t14.5 15.5t12 15.5t8.5 13l6 10l3 5q2 2 8 2q23 0 57.5 -40t34.5 -66q0 -8 -4 -12q-3 -4 -8 -11t-22.5 -25.5t-37 -32t-50.5 -25t-64 -11.5q-38 0 -136 45t-126 45q-31 0 -55.5 -12.5t-33.5 -24.5l-9 -12q-8 -4 -13 -4 q-25 0 -51 42t-26 71z" />
<glyph unicode="&#xd2;" horiz-adv-x="1335" d="M96 721q0 196 76.5 365.5t209 270.5t286.5 101q173 0 305 -102t199 -268t67 -367q0 -197 -76 -368.5t-208 -274.5t-287 -103q-116 0 -222 61t-182.5 162t-122 238.5t-45.5 284.5zM256 700q0 -145 59 -276.5t157 -211t206 -79.5q110 0 203 86t145.5 227t52.5 302 q0 145 -52 271.5t-144 202.5t-201 76q-105 0 -198.5 -73.5t-153.5 -198t-72 -270.5q-2 -18 -2 -56zM420 1743q0 31 31 73t45 42h2l301 -156q41 -23 41 -57q0 -28 -21.5 -52t-36.5 -24l-350 145q-12 7 -12 29z" />
<glyph unicode="&#xd3;" horiz-adv-x="1355" d="M123 721q0 196 76.5 365.5t208.5 270.5t286 101q131 0 240 -59.5t181 -160.5t111.5 -234.5t39.5 -282.5q0 -147 -45 -284.5t-121.5 -238.5t-183 -162t-222.5 -61q-154 0 -286 102.5t-208.5 274.5t-76.5 369zM283 700q0 -145 59 -276.5t157 -211t206 -79.5q110 0 203 86 t145.5 227t52.5 302q0 145 -52 271.5t-144 202.5t-201 76q-105 0 -198.5 -73.5t-153.5 -198t-72 -270.5q-2 -18 -2 -56zM586 1645q0 36 41 57l301 156h2q14 0 45 -42t31 -73q0 -19 -13 -29l-350 -145q-15 0 -36 24t-21 52z" />
<glyph unicode="&#xd4;" horiz-adv-x="1370" d="M109 721q0 196 76.5 365.5t208.5 270.5t286 101q173 0 305 -102t199 -268t67 -367q0 -197 -76 -368.5t-208 -274.5t-287 -103q-154 0 -286 102.5t-208.5 274.5t-76.5 369zM268 700q0 -145 59 -276.5t157 -211t206 -79.5q110 0 203 86t146 227.5t53 301.5 q0 145 -52.5 271.5t-144.5 202.5t-201 76q-105 0 -198.5 -73.5t-153.5 -198t-72 -270.5q-2 -18 -2 -56zM401 1690q0 20 15 32l256 133q6 3 28 3q20 0 29 -3l248 -135q14 -11 14 -30q0 -27 -26.5 -60t-40.5 -33h-2l-222 129l-235 -129h-2q-14 0 -38 33t-24 60z" />
<glyph unicode="&#xd5;" horiz-adv-x="1349" d="M100 721q0 196 76.5 365.5t209 270.5t286.5 101q173 0 305 -102t199 -268t67 -367q0 -197 -76 -368.5t-208 -274.5t-287 -103q-116 0 -222 61t-182.5 162t-122 238.5t-45.5 284.5zM260 700q0 -145 59 -276.5t157 -211t206 -79.5q110 0 203 86t145.5 227t52.5 302 q0 145 -52 271.5t-144 202.5t-201 76q-105 0 -198.5 -73.5t-153.5 -198t-72 -270.5q-2 -18 -2 -56zM362 1733q0 9 5 14q0 3 13 15t46 26t72 14q93 0 204 -73q36 -23 68 -23q13 0 25 3t22.5 8.5t20 12.5t17.5 15t14.5 15.5t12 15.5t8.5 13l6 10l3 5q2 2 8 2q23 0 57.5 -40 t34.5 -66q0 -8 -4 -12q-3 -4 -8 -11t-22.5 -25.5t-37 -32t-50.5 -25t-64 -11.5q-38 0 -136 45t-126 45q-31 0 -55.5 -12.5t-33.5 -24.5l-9 -12q-8 -4 -13 -4q-25 0 -51.5 42t-26.5 71z" />
<glyph unicode="&#xd6;" horiz-adv-x="1349" d="M115 721q0 196 76.5 365.5t208.5 270.5t286 101q173 0 305 -102t199 -268t67 -367q0 -197 -76 -368.5t-208 -274.5t-287 -103q-154 0 -286 102.5t-208.5 274.5t-76.5 369zM274 700q0 -145 59 -276.5t157 -211t206 -79.5q110 0 203 86t146 227.5t53 301.5 q0 145 -52.5 271.5t-144.5 202.5t-201 76q-105 0 -198.5 -73.5t-153.5 -198t-72 -270.5q-2 -18 -2 -56zM442 1677v13q0 37 25.5 62.5t62.5 25.5h13q35 0 59.5 -25.5t24.5 -62.5v-13q0 -37 -24.5 -61.5t-59.5 -24.5h-13q-37 0 -62.5 24.5t-25.5 61.5zM795 1677v13 q0 37 25.5 62.5t62.5 25.5h12q36 0 60 -25.5t24 -62.5v-13q0 -37 -23.5 -61.5t-60.5 -24.5h-12q-37 0 -62.5 24.5t-25.5 61.5z" />
<glyph unicode="&#xd7;" horiz-adv-x="929" d="M135 475q0 8 6 17l217 223l-219 215q-2 0 -2 4q0 22 36.5 68.5t66.5 46.5q8 0 16 -5l219 -215l195 197q6 6 18 6q30 0 69.5 -39.5t39.5 -66.5q0 -7 -4 -11l-203 -200l198 -199q9 -14 9 -20q0 -30 -40 -68.5t-67 -38.5q-6 0 -10 4l-205 205l-219 -221q-2 -2 -6 -2 q-23 0 -69 35t-46 65z" />
<glyph unicode="&#xd8;" horiz-adv-x="1431" d="M117 713q0 146 45.5 279.5t122 229.5t182 153t221.5 57q101 0 191 -41l61 122q4 7 27 7q38 0 78 -16t40 -44v-6l-71 -149q114 -100 180 -255t66 -337q0 -196 -76.5 -362t-208 -262.5t-287.5 -96.5q-97 0 -186 39l-68 -150q-6 -18 -35 -18q-34 0 -75 22.5t-41 42.5 q0 1 1 3t1 3l80 183q-115 100 -181.5 256.5t-66.5 339.5zM276 682q0 -126 40 -234.5t110 -181.5l399 989q-65 21 -114 21q-85 0 -165 -47.5t-139.5 -127t-95 -189.5t-35.5 -230zM561 178q47 -20 103 -20q115 0 215.5 76.5t160.5 211.5t60 295q0 123 -38.5 233.5 t-105.5 184.5z" />
<glyph unicode="&#xd9;" horiz-adv-x="1382" d="M121 522q0 -163 75.5 -288t205 -191.5t292.5 -67.5h6q231 6 378 161.5t147 387.5v881q0 8 -37.5 18.5t-71.5 10.5q-53 0 -53 -29l-2 -889q0 -94 -42 -180.5t-126.5 -145.5t-192.5 -61q-111 2 -205 48t-153 134t-59 201v899q0 29 -56 29q-34 0 -70 -10.5t-36 -18.5v-889z M481 1743q0 31 31 73t45 42h2l301 -156q41 -23 41 -57q0 -28 -21 -52t-36 -24l-350 145q-13 8 -13 29z" />
<glyph unicode="&#xda;" horiz-adv-x="1396" d="M121 522v889q0 8 36 18.5t70 10.5q56 0 56 -29v-899q0 -113 59 -201t153 -134t205 -48q108 2 192.5 61t126.5 145.5t42 180.5l2 889q0 29 53 29q34 0 71.5 -10.5t37.5 -18.5v-881q0 -232 -147 -387.5t-378 -161.5h-6q-163 1 -292.5 67.5t-205 191.5t-75.5 288zM580 1645 q0 36 41 57l301 156h2q14 0 44.5 -42t30.5 -73q0 -20 -12 -29l-350 -145q-15 0 -36 24t-21 52z" />
<glyph unicode="&#xdb;" horiz-adv-x="1335" d="M121 522v889q0 8 36 18.5t70 10.5q56 0 56 -29v-899q0 -113 59 -201t153 -134t205 -48q108 2 192.5 61t126.5 145.5t42 180.5l2 889q0 29 53 29q34 0 71.5 -10.5t37.5 -18.5v-881q0 -232 -147 -387.5t-378 -161.5h-6q-163 1 -292.5 67.5t-205 191.5t-75.5 288zM391 1690 q0 20 15 32l256 133q6 3 28 3q20 0 29 -3l248 -135q14 -11 14 -30q0 -27 -27 -60t-41 -33h-2l-221 129l-235 -129h-2q-14 0 -38 33t-24 60z" />
<glyph unicode="&#xdc;" horiz-adv-x="1382" d="M150 522v889q0 8 36 18.5t70 10.5q55 0 55 -29v-899q0 -85 34.5 -153t93 -111t132.5 -66.5t158 -25.5q162 3 261.5 109t99.5 251l2 889q0 29 53 29q34 0 71 -10.5t37 -18.5v-881q0 -229 -145 -372.5t-379 -149.5h-6q-252 2 -412.5 140t-160.5 380zM403 1677v13 q0 37 26 62.5t63 25.5h12q35 0 59.5 -25.5t24.5 -62.5v-13q0 -37 -24.5 -61.5t-59.5 -24.5h-12q-37 0 -63 25t-26 61zM838 1677v13q0 37 25.5 62.5t62.5 25.5h12q36 0 60 -25.5t24 -62.5v-13q0 -37 -23.5 -61.5t-60.5 -24.5h-12q-37 0 -62.5 24.5t-25.5 61.5z" />
<glyph unicode="&#xdd;" horiz-adv-x="1259" d="M43 1346v2q0 16 44.5 53t74.5 37q12 0 22 -13l357 -598l503 594q6 9 19 9q28 0 67 -46t39 -65v-2l-544 -645v-666q-52 -10 -99 -10q-45 0 -65 10v653zM485 1645q0 36 41 57l301 156h2q14 0 45 -42t31 -73q0 -20 -12 -29l-350 -145q-15 0 -36.5 24t-21.5 52z" />
<glyph unicode="&#xde;" horiz-adv-x="1128" d="M127 1368q0 8 32 19.5t62 11.5q53 0 58 -31l2 -502q2 -4 6 -16q143 143 301 143q150 0 253 -123.5t103 -308.5q0 -268 -141.5 -413.5t-364.5 -145.5q-43 0 -86.5 17t-68.5 42l-2 -426q0 -19 -23 -28.5t-55 -9.5q-30 0 -52 8t-22 22zM283 254q3 -4 8.5 -11t26 -24t44 -30 t62 -24t80.5 -11q112 0 194 96t82 248q0 155 -58.5 244t-164.5 89q-46 0 -91 -12t-76 -29t-55.5 -34t-36.5 -29l-11 -12z" />
<glyph unicode="&#xdf;" horiz-adv-x="1036" d="M92 47q0 219 2 661.5t2 669.5q3 3 9.5 7.5t34 16t64 20.5t103.5 16.5t148 7.5q85 0 152 -20.5t108 -52t68 -74t37.5 -83t10.5 -81.5q0 -50 -14 -109t-48.5 -118t-82.5 -87q27 -12 53.5 -26t69 -48t73 -74t53.5 -103.5t23 -135.5q0 -208 -121.5 -321.5t-332.5 -118.5 q-12 0 -19.5 21t-7.5 51q0 29 7.5 50.5t19.5 22.5q57 0 106 15t90 47.5t64.5 90.5t23.5 136q0 84 -34 146t-89 94.5t-111.5 47.5t-113.5 15q-22 0 -30.5 14.5t-8.5 51.5q0 33 8.5 63.5t18.5 30.5h4h-2q6 -2 16 -2q29 0 50 8q178 59 178 229q0 55 -21 94.5t-57.5 59.5 t-76 28.5t-85.5 8.5q-33 0 -74 -5.5t-66 -11.5l-24 -6q-2 -214 -8 -642t-8 -642q0 -12 -51 -12q-43 0 -77 12t-34 37z" />
<glyph unicode="&#xe0;" horiz-adv-x="935" d="M61 289q0 -85 26.5 -149.5t69.5 -99t88.5 -51t92.5 -16.5q110 0 266 78q44 -76 121 -76q64 0 135 52q-121 74 -121 262q0 50 10.5 142t12.5 124q2 29 2 86q0 71 -9.5 127t-24.5 93.5t-40.5 64t-49.5 40.5t-60.5 21.5t-64.5 9.5t-69 2q-87 0 -180.5 -24.5t-93.5 -63.5 q0 -30 14 -71t31 -41q1 0 2 1t2 1q71 29 123 40.5t148 14.5q39 -1 65.5 -20.5t39 -53t17 -67.5t4.5 -78q0 -12 -1 -35t-1 -33q-77 23 -147 23q-77 0 -149.5 -21t-130.5 -59t-93 -96t-35 -127zM215 289q10 180 254 180q64 0 139 -10q0 -35 -4 -102.5t-4 -102.5q0 -20 4 -70 q-167 -67 -246 -67q-20 0 -28 2q-53 6 -83.5 50t-31.5 120zM225 1309q0 31 31 72.5t45 41.5h2l301 -155q41 -23 41 -58q0 -28 -21 -51.5t-36 -23.5l-350 145q-13 8 -13 29z" />
<glyph unicode="&#xe1;" horiz-adv-x="933" d="M76 289q0 91 60 162t151.5 106t195.5 35q71 0 148 -23q0 10 1 33t1 35q0 214 -127 219q-96 -3 -147.5 -14.5t-122.5 -40.5q-1 0 -2.5 -1t-2.5 -1q-17 0 -31 41t-14 71q0 39 94 63.5t181 24.5q41 0 69 -2t64.5 -9.5t60 -21.5t49 -40.5t40.5 -64t24.5 -93.5t9.5 -127 q0 -57 -2 -86q-2 -31 -12 -123t-10 -143q0 -188 120 -262q-71 -52 -135 -52q-77 0 -121 76q-156 -78 -266 -78q-47 0 -92.5 16.5t-88 51t-69 99t-26.5 149.5zM229 289q1 -76 31.5 -120t83.5 -50q8 -2 29 -2q19 0 41.5 3t44.5 8.5t41.5 11.5t40.5 13.5t33.5 12.5t27.5 11.5 t16 6.5q-4 50 -4 70q0 35 4.5 102.5t4.5 102.5q-75 10 -140 10q-244 0 -254 -180zM371 1210q0 37 41 58l301 155h2q14 0 45 -41.5t31 -72.5q0 -19 -13 -29l-350 -145q-15 0 -36 23.5t-21 51.5z" />
<glyph unicode="&#xe2;" horiz-adv-x="962" d="M84 289q0 69 35 127t93 96t130.5 59t149.5 21q70 0 147 -23q0 10 1 33t1 35q0 214 -127 219q-96 -3 -147.5 -14.5t-122.5 -40.5q-1 0 -2 -1t-2 -1q-17 0 -31 41t-14 71q0 39 93.5 63.5t180.5 24.5q41 0 69 -2t64.5 -9.5t60 -21.5t49 -40.5t40.5 -64t24.5 -93.5t9.5 -127 q0 -57 -2 -86q-2 -31 -12 -123t-10 -143q0 -188 121 -262q-71 -52 -135 -52q-77 0 -121 76q-156 -78 -267 -78q-47 0 -92.5 16.5t-88 51t-69 99t-26.5 149.5zM195 1255q0 22 14 33l256 133q4 2 29 2q22 0 28 -2l248 -135q14 -11 14 -31q0 -27 -26.5 -59.5t-40.5 -32.5h-2 l-221 129l-236 -129h-2q-14 0 -37.5 32.5t-23.5 59.5zM238 289q1 -76 31 -120t83 -50q8 -2 29 -2q79 0 246 67q-4 50 -4 70q0 35 4 102.5t4 102.5q-75 10 -139 10q-244 0 -254 -180z" />
<glyph unicode="&#xe3;" horiz-adv-x="950" d="M80 289q0 91 60 162t151.5 106t195.5 35q71 0 148 -23q0 10 1 33t1 35q0 214 -127 219q-96 -3 -147.5 -14.5t-122.5 -40.5q-1 0 -2 -1t-2 -1q-17 0 -31.5 41t-14.5 71q0 39 94 63.5t181 24.5q41 0 69 -2t64.5 -9.5t60 -21.5t49 -40.5t40.5 -64t24.5 -93.5t9.5 -127 q0 -57 -2 -86q-2 -31 -12 -123t-10 -143q0 -188 121 -262q-71 -52 -136 -52q-76 0 -120 76q-156 -78 -267 -78q-47 0 -92.5 16.5t-88 51t-69 99t-26.5 149.5zM184 1298q0 11 4 15q0 3 13 15t46 26t72 14q92 0 205 -74q34 -22 68 -22q13 0 25 3t22.5 8.5t20 12.5t17.5 15 t14.5 15.5t12 15.5t8.5 13l6 10l3 5q2 2 8 2q23 0 57.5 -40t34.5 -66q0 -9 -4 -13q-3 -4 -8 -11t-22.5 -25t-37 -32t-50.5 -25t-64 -11q-38 0 -136 45t-126 45q-31 0 -56 -12.5t-34 -24.5l-9 -12q-8 -4 -12 -4q-25 0 -51.5 41.5t-26.5 70.5zM233 289q1 -76 31.5 -120 t83.5 -50q8 -2 29 -2q79 0 246 67q-5 63 -5 70q0 35 4.5 102.5t4.5 102.5q-75 10 -140 10q-244 0 -254 -180z" />
<glyph unicode="&#xe4;" horiz-adv-x="940" d="M82 289q0 91 60 162t151.5 106t195.5 35q71 0 148 -23q0 10 1 33t1 35q0 214 -127 219q-96 -3 -147.5 -14.5t-122.5 -40.5q-1 0 -2 -1t-2 -1q-17 0 -31 41t-14 71q0 39 93.5 63.5t180.5 24.5q41 0 69 -2t64.5 -9.5t60 -21.5t49 -40.5t40.5 -64t24.5 -93.5t9.5 -127 q0 -57 -2 -86q-2 -31 -12 -123t-10 -143q0 -188 121 -262q-71 -52 -136 -52q-76 0 -120 76q-156 -78 -267 -78q-47 0 -92.5 16.5t-88 51t-69 99t-26.5 149.5zM225 1243v12q0 37 25.5 62.5t62.5 25.5h13q35 0 59.5 -25.5t24.5 -62.5v-12q0 -37 -24.5 -61.5t-59.5 -24.5h-13 q-37 0 -62.5 24.5t-25.5 61.5zM236 289q1 -76 31 -120t83 -50q8 -2 29 -2q79 0 246 67q-4 50 -4 70q0 35 4 102.5t4 102.5q-75 10 -140 10q-243 0 -253 -180zM578 1243v12q0 37 25.5 62.5t62.5 25.5h12q36 0 60 -25.5t24 -62.5v-12q0 -37 -23.5 -61.5t-60.5 -24.5h-12 q-37 0 -62.5 24.5t-25.5 61.5z" />
<glyph unicode="&#xe5;" horiz-adv-x="925" d="M66 289q0 -85 26.5 -149.5t69 -99t88 -51t92.5 -16.5q110 0 266 78q44 -76 121 -76q64 0 135 52q-121 74 -121 262q0 50 10.5 142t12.5 124q2 29 2 86q0 71 -9.5 127t-24.5 93.5t-40.5 64t-49 40.5t-60 21.5t-64.5 9.5t-69 2q-87 0 -181 -24.5t-94 -63.5q0 -30 14 -71 t31 -41q1 0 2 1t2 1q71 29 123 40.5t148 14.5q127 -5 127 -219q0 -12 -1 -35t-1 -33q-77 23 -148 23q-104 0 -195.5 -35t-151.5 -106t-60 -162zM219 289q10 180 254 180q64 0 139 -10q0 -35 -4 -102.5t-4 -102.5q0 -20 4 -70q-1 0 -16.5 -6.5t-27.5 -11.5t-33.5 -12.5 t-41 -13.5t-41.5 -11.5t-44.5 -8.5t-41.5 -3q-20 0 -28 2q-53 6 -83.5 50t-31.5 120zM279 1356q0 99 70 169t169 70q100 0 170 -69.5t70 -169.5q0 -98 -70 -168t-170 -70q-98 0 -168.5 70t-70.5 168zM395 1356q0 -50 36.5 -85.5t88.5 -35.5q51 0 88 36t37 85q0 52 -37 88.5 t-88 36.5q-52 0 -88.5 -36.5t-36.5 -88.5z" />
<glyph unicode="&#xe6;" horiz-adv-x="1576" d="M76 301q0 93 59 165t150.5 108t195.5 36q75 0 152 -22q20 70 20 129q0 70 -29 115t-94 45q-63 0 -135 -12t-113 -24l-40 -12q-33 44 -33 97q0 14 2 26.5t4 18.5l2 6q0 -1 43.5 11.5t126 28t158.5 15.5q31 0 62.5 -6t67 -20.5t63 -44.5t38.5 -72q131 125 322 125 q86 0 156.5 -18.5t126.5 -58t87 -108t31 -161.5q0 -83 -30 -133t-93 -50h-575q31 -344 291 -344q52 0 91 3.5t70.5 13t45.5 15t45.5 22.5t41.5 22q2 0 6.5 1t6.5 1q18 0 30 -16t17 -41t6.5 -43t1.5 -35q0 -25 -68.5 -45t-144.5 -28.5t-131 -8.5q-11 0 -39.5 -0.5t-41 0 t-38.5 1.5t-40.5 4.5t-38 9t-40.5 14.5t-38.5 21.5t-41 30.5t-38.5 40q-9 -5 -24 -14t-61.5 -31.5t-91.5 -40t-106 -31.5t-113 -14q-49 0 -95 15.5t-90 48.5t-70.5 96.5t-26.5 148.5zM227 303q0 -91 44.5 -133.5t119.5 -42.5q44 0 99.5 14t83.5 25t42 18q-8 32 -8 115 q0 52 5 97t11 64l5 19q-74 13 -154 13q-36 0 -70 -6t-67 -20t-57 -35.5t-39 -54t-15 -73.5zM834 614l452 -6q49 0 49 105q0 149 -229 149q-100 0 -186 -77t-86 -171z" />
<glyph unicode="&#xe7;" horiz-adv-x="964" d="M86 520q0 212 140.5 350t344.5 138q99 0 168 -15t125 -61v-19q0 -86 -67 -108q-36 34 -90 45.5t-142 11.5q-131 0 -223 -101.5t-92 -246.5q0 -146 92 -249t223 -103q77 0 126 16.5t108 65.5q1 0 3 1t3 1q20 0 44.5 -34.5t24.5 -68.5q0 -39 -54.5 -73t-119.5 -51.5 t-114 -18.5l6 -49q3 -1 8.5 -2.5t19.5 -8t24.5 -15t19 -23t8.5 -31.5q0 -44 -34 -80.5t-82 -56t-90 -29.5t-67 -10q-14 0 -29.5 28.5t-15.5 47.5q0 5 31 11.5t67.5 14t67.5 28.5t31 50q0 24 -26 48t-53 36l-26 12l5 45q-159 43 -262 182.5t-103 321.5z" />
<glyph unicode="&#xe8;" horiz-adv-x="980" d="M76 524q0 221 101 349t296 128q111 0 185.5 -21.5t118 -67.5t61.5 -110.5t18 -158.5q0 -59 -6 -129q-5 -51 -324 -51q-64 0 -134 2t-108 4l-38 2q0 -93 25.5 -162.5t70.5 -109t99.5 -58t119.5 -18.5q105 0 213 43q1 0 3.5 1t4.5 1q22 0 41 -41t19 -72q0 -24 -35.5 -41 t-92 -25t-106.5 -11t-98 -3q-120 0 -207 44.5t-135 123.5t-70 173t-22 208zM240 1309q0 31 30.5 72.5t44.5 41.5h2l301 -155q41 -23 41 -58q0 -28 -21 -51.5t-36 -23.5l-350 145q-12 7 -12 29zM248 600q151 -6 278 -6q172 0 172 14q0 37 -0.5 56.5t-2.5 48.5t-6 43t-11 34.5 t-18.5 30.5t-28 22t-38.5 17t-51 8.5t-65 3.5q-64 0 -110.5 -24t-71 -65t-36 -86.5t-11.5 -96.5z" />
<glyph unicode="&#xe9;" horiz-adv-x="954" d="M57 524q0 221 101.5 349t296.5 128q111 0 185.5 -21.5t118 -67.5t61.5 -110.5t18 -158.5q0 -47 -7 -129q-5 -51 -323 -51q-64 0 -134 2t-108 4l-39 2q0 -93 25.5 -162.5t70.5 -109t100 -58t120 -18.5q105 0 213 43q1 0 3.5 1t4.5 1q22 0 40.5 -40.5t18.5 -72.5 q0 -24 -35.5 -41t-91.5 -25t-106 -11t-98 -3q-97 0 -172.5 30t-124.5 80.5t-80.5 122t-44.5 149t-13 167.5zM229 600q152 -6 279 -6q172 0 172 14q0 37 -0.5 56.5t-2.5 48.5t-6 43t-11 34.5t-18.5 30.5t-28 22t-38.5 17t-51 8.5t-65 3.5q-64 0 -110.5 -24t-71.5 -65 t-36.5 -86.5t-11.5 -96.5zM340 1210q0 37 41 58l301 155h2q14 0 45 -41.5t31 -72.5q0 -20 -12 -29l-351 -145q-15 0 -36 23.5t-21 51.5z" />
<glyph unicode="&#xea;" horiz-adv-x="989" d="M82 524q0 221 101 349t296 128q111 0 185.5 -21.5t118 -67.5t61.5 -110.5t18 -158.5q0 -59 -6 -129q-5 -51 -324 -51q-64 0 -134 2t-108 4l-38 2q0 -93 25.5 -162.5t70.5 -109t99.5 -58t119.5 -18.5q105 0 213 43q1 0 3.5 1t4.5 1q22 0 41 -41t19 -72q0 -24 -35.5 -41 t-92 -25t-106.5 -11t-98 -3q-120 0 -207 44.5t-135 123.5t-70 173t-22 208zM219 1255q0 22 14 33l256 133q4 2 29 2q23 0 29 -2l248 -135q14 -11 14 -31q0 -27 -27 -59.5t-41 -32.5h-2l-221 129l-235 -129h-2q-14 0 -38 32.5t-24 59.5zM254 600q151 -6 278 -6q173 0 173 14 q0 37 -0.5 56.5t-2.5 48t-6 43.5t-11.5 35t-19 30t-28 22t-38.5 17t-51 8.5t-65 3.5q-64 0 -110.5 -24t-71 -65t-36 -86.5t-11.5 -96.5z" />
<glyph unicode="&#xeb;" horiz-adv-x="976" d="M82 524q0 221 101 349t296 128q111 0 185.5 -21.5t118 -67.5t61.5 -110.5t18 -158.5q0 -59 -6 -129q-5 -51 -324 -51q-64 0 -134 2t-108 4l-38 2q0 -93 25.5 -162.5t70.5 -109t99.5 -58t119.5 -18.5q105 0 213 43q1 0 3.5 1t4.5 1q22 0 41 -41t19 -72q0 -24 -35.5 -41 t-92 -25t-106.5 -11t-98 -3q-120 0 -207 44.5t-135 123.5t-70 173t-22 208zM240 1243v12q0 37 25.5 62.5t62.5 25.5h12q35 0 59.5 -25.5t24.5 -62.5v-12q0 -37 -24.5 -61.5t-59.5 -24.5h-12q-37 0 -62.5 24.5t-25.5 61.5zM254 600q151 -6 278 -6q173 0 173 14 q0 37 -0.5 56.5t-2.5 48t-6 43.5t-11.5 35t-19 30t-28 22t-38.5 17t-51 8.5t-65 3.5q-64 0 -110.5 -24t-71 -65t-36 -86.5t-11.5 -96.5zM592 1243v12q0 37 25.5 62.5t62.5 25.5h12q36 0 60 -25.5t24 -62.5v-12q0 -37 -23.5 -61.5t-60.5 -24.5h-12q-37 0 -62.5 24.5 t-25.5 61.5z" />
<glyph unicode="&#xec;" horiz-adv-x="559" d="M41 1309q0 31 31 72.5t45 41.5h2l301 -155q41 -23 41 -58q0 -28 -21.5 -51.5t-36.5 -23.5l-350 145q-12 7 -12 29zM213 983l2 -958q0 -14 23.5 -22.5t56.5 -8.5q34 0 59 10t25 29l-2 950q-5 31 -62 31q-33 0 -67.5 -11.5t-34.5 -19.5z" />
<glyph unicode="&#xed;" horiz-adv-x="530" d="M80 1210q0 37 41 58l301 155h2q14 0 45 -41.5t31 -72.5q0 -19 -13 -29l-350 -145q-15 0 -36 23.5t-21 51.5zM172 983q0 8 34.5 19.5t67.5 11.5q57 0 62 -31l2 -950q0 -19 -25 -29t-59 -10q-33 0 -56.5 8.5t-23.5 22.5z" />
<glyph unicode="&#xee;" horiz-adv-x="700" d="M55 1255q0 21 15 33l256 133q4 2 28 2q23 0 29 -2l248 -135q14 -11 14 -31q0 -27 -26.5 -59.5t-40.5 -32.5h-3l-221 129l-235 -129h-2q-14 0 -38 32.5t-24 59.5zM270 983q0 8 35 19.5t68 11.5q56 0 61 -31l2 -950q0 -19 -25 -29t-59 -10q-33 0 -56.5 8.5t-23.5 22.5z" />
<glyph unicode="&#xef;" horiz-adv-x="575" d="M49 1243v12q0 37 25.5 62.5t62.5 25.5h13q35 0 59 -25.5t24 -62.5v-12q0 -37 -24 -61.5t-59 -24.5h-13q-37 0 -62.5 24.5t-25.5 61.5zM190 983q0 8 35 19.5t68 11.5q56 0 61 -31l2 -950q0 -19 -25 -29t-59 -10q-33 0 -56 8.5t-23 22.5zM346 1243v12q0 37 25.5 62.5 t62.5 25.5h12q36 0 60 -25.5t24 -62.5v-12q0 -37 -23.5 -61.5t-60.5 -24.5h-12q-37 0 -62.5 24.5t-25.5 61.5z" />
<glyph unicode="&#xf0;" horiz-adv-x="1153" d="M86 401q0 108 26.5 190t67.5 129t98.5 76t110.5 38.5t113 9.5q55 0 89 -6t41 -12l7 -7q14 0 22.5 -25t8.5 -57q0 -24 -6.5 -42.5t-16.5 -18.5q0 2 -12 7.5t-50 12t-91 6.5q-72 0 -129.5 -46.5t-87 -117t-29.5 -147.5q0 -50 15 -97t44 -87.5t79 -65t114 -24.5 q118 0 208.5 100.5t90.5 224.5q0 157 -13.5 303t-26.5 216.5t-16 68.5q-119 -41 -290 -41q-1 0 -3.5 -1t-3.5 -1q-22 0 -35.5 28.5t-13.5 61.5q0 26 8 35.5t31 9.5q199 0 236 33q-8 9 -19.5 35t-23.5 45.5t-52.5 44.5t-105.5 41q-10 5 -10 18q0 27 27.5 65t46.5 38q6 0 8 -2 q72 -17 121.5 -41.5t75 -53.5t38.5 -54t24.5 -56.5t20.5 -46.5q40 47 172 47q78 0 78 -109q0 -26 -16 -26q-18 0 -46 -1.5t-79.5 -13.5t-61.5 -32q70 -191 70 -600q0 -113 -38 -204.5t-101 -147.5t-140.5 -85.5t-160.5 -29.5q-80 0 -153 27t-132 77.5t-94 131t-35 179.5z " />
<glyph unicode="&#xf1;" horiz-adv-x="1112" d="M127 16v934q1 2 4 6t24 11.5t56 11.5q4 0 11.5 1t10.5 1q25 0 40.5 -8.5t18.5 -17.5l3 -9v-133q116 186 309 186q52 0 95.5 -8t91.5 -29t84 -61.5t66.5 -100.5t46.5 -153t16 -211l-5 -420q0 -20 -69 -20q-36 0 -66 5.5t-30 14.5v490q0 323 -254 323q-74 0 -158 -38 t-127 -113v-668v6q0 -9 -25 -14.5t-57 -5.5q-34 0 -60 5.5t-26 14.5zM233 1298q0 10 5 15q0 3 13 15t46 26t72 14q91 0 204 -74q34 -22 68 -22q13 0 25 3t22.5 8.5t20 12.5t17.5 15t14.5 15.5t12 15.5t8.5 13l6 10l3 5q2 2 8 2q23 0 57.5 -40t34.5 -66q0 -9 -4 -13 q-3 -4 -8 -11t-22.5 -25t-37 -32t-50.5 -25t-64 -11q-38 0 -136 45t-126 45q-31 0 -55.5 -12.5t-33.5 -24.5l-9 -12q-8 -4 -13 -4q-25 0 -51.5 41.5t-26.5 70.5z" />
<glyph unicode="&#xf2;" d="M102 514q0 210 140.5 347.5t341.5 137.5q202 0 341.5 -137t139.5 -348q0 -129 -37.5 -233t-103.5 -170t-153.5 -101t-188.5 -35q-100 0 -186.5 35.5t-152.5 102t-103.5 170t-37.5 231.5zM264 508q0 -169 86.5 -276t227.5 -107q159 0 243 99t84 284q0 159 -95.5 252.5 t-231.5 93.5q-130 0 -222 -101t-92 -245zM330 1309q0 31 31 72.5t45 41.5h2l301 -155q41 -23 41 -58q0 -28 -21.5 -51.5t-36.5 -23.5l-350 145q-12 7 -12 29z" />
<glyph unicode="&#xf3;" d="M102 514q0 210 140.5 347.5t341.5 137.5q202 0 341.5 -137t139.5 -348q0 -129 -37.5 -233t-103.5 -170t-153.5 -101t-188.5 -35q-100 0 -186.5 35.5t-152.5 102t-103.5 170t-37.5 231.5zM264 508q0 -169 86.5 -276t227.5 -107q159 0 243 99t84 284q0 159 -95.5 252.5 t-231.5 93.5q-130 0 -222 -101t-92 -245zM408 1210q0 37 41 58l301 155h2q14 0 44.5 -41.5t30.5 -72.5q0 -20 -12 -29l-350 -145q-15 0 -36 23.5t-21 51.5z" />
<glyph unicode="&#xf4;" d="M102 514q0 210 140.5 347.5t341.5 137.5q202 0 341.5 -137t139.5 -348q0 -129 -37.5 -233t-103.5 -170t-153.5 -101t-188.5 -35q-100 0 -186.5 35.5t-152.5 102t-103.5 170t-37.5 231.5zM264 508q0 -169 86.5 -276t227.5 -107q159 0 243 99t84 284q0 159 -95.5 252.5 t-231.5 93.5q-130 0 -222 -101t-92 -245zM299 1255q0 22 14 33l256 133q4 2 29 2q23 0 29 -2l247 -135q15 -12 15 -31q0 -27 -27 -59.5t-41 -32.5h-2l-221 129l-236 -129h-2q-14 0 -37.5 32.5t-23.5 59.5z" />
<glyph unicode="&#xf5;" d="M102 514q0 210 140.5 347.5t341.5 137.5q202 0 341.5 -137t139.5 -348q0 -129 -37.5 -233t-103.5 -170t-153.5 -101t-188.5 -35q-100 0 -186.5 35.5t-152.5 102t-103.5 170t-37.5 231.5zM256 1298q0 11 4 15q0 3 13 15t46 26t72 14q92 0 205 -74q34 -22 68 -22q13 0 25 3 t22.5 8.5t20 12.5t17.5 15t14.5 15.5t12 15.5t8.5 13l6 10l3 5q2 2 8 2q23 0 57.5 -40t34.5 -66q0 -9 -4 -13q-3 -4 -8 -11t-22.5 -25t-37 -32t-50.5 -25t-64 -11q-38 0 -136.5 45t-126.5 45q-31 0 -55.5 -12.5t-33.5 -24.5l-9 -12q-8 -4 -12 -4q-25 0 -51.5 41.5 t-26.5 70.5zM264 508q0 -169 86.5 -276t227.5 -107q159 0 243 99t84 284q0 159 -95.5 252.5t-231.5 93.5q-130 0 -222 -101t-92 -245z" />
<glyph unicode="&#xf6;" d="M102 514q0 210 140.5 347.5t341.5 137.5q202 0 341.5 -137t139.5 -348q0 -129 -37.5 -233t-103.5 -170t-153.5 -101t-188.5 -35q-100 0 -186.5 35.5t-152.5 102t-103.5 170t-37.5 231.5zM264 508q0 -169 86.5 -276t227.5 -107q159 0 243 99t84 284q0 159 -95.5 252.5 t-231.5 93.5q-130 0 -222 -101t-92 -245zM322 1243v12q0 37 25.5 62.5t62.5 25.5h12q35 0 59.5 -25.5t24.5 -62.5v-12q0 -37 -24.5 -61.5t-59.5 -24.5h-12q-37 0 -62.5 24.5t-25.5 61.5zM674 1243v12q0 37 25.5 62.5t62.5 25.5h12q36 0 60 -25.5t24 -62.5v-12 q0 -37 -23.5 -61.5t-60.5 -24.5h-12q-37 0 -62.5 24.5t-25.5 61.5z" />
<glyph unicode="&#xf7;" horiz-adv-x="1011" d="M88 694q0 32 8.5 56t22.5 24l760 2q8 0 19 -35t11 -67q0 -57 -30 -62l-752 -2q-19 0 -29 24.5t-10 59.5zM387 383v14q0 44 31.5 76.5t75.5 32.5h16q43 0 73.5 -32.5t30.5 -76.5v-14q0 -45 -30.5 -76t-73.5 -31h-16q-45 0 -76 31t-31 76zM387 993v17q0 44 31.5 75t75.5 31 h16q43 0 73.5 -31t30.5 -75v-17q0 -45 -30.5 -75.5t-73.5 -30.5h-16q-45 0 -76 30.5t-31 75.5z" />
<glyph unicode="&#xf8;" horiz-adv-x="1165" d="M98 500q0 148 68 263.5t176.5 175.5t235.5 60q92 0 196 -38l113 174q4 4 16 4q30 0 64 -17.5t34 -42.5q0 -10 -2 -14l-108 -195q158 -158 158 -354q0 -108 -40.5 -205t-107 -164.5t-154 -107t-180.5 -39.5q-84 0 -213 61l-90 -141q-8 -14 -28 -14q-28 0 -60.5 23 t-32.5 44q0 3 4 11l97 153q-68 68 -107 163.5t-39 199.5zM254 498q0 -139 74 -232l364 568q-59 20 -112 20q-134 0 -230 -100.5t-96 -255.5zM410 162q14 -5 37 -14t37 -14t34.5 -9t40.5 -4q138 0 240 112t102 279q0 137 -96 252z" />
<glyph unicode="&#xf9;" horiz-adv-x="1124" d="M129 553q0 -148 24 -257t60 -170t91 -96.5t104.5 -46t113.5 -10.5q58 0 107.5 16.5t88 47.5t66.5 64t56 77v-151q0 -4 2.5 -10t18 -15.5t40.5 -9.5q15 0 23 2q35 4 56 11t24 13l4 5l-2 940q0 18 -86 18q-82 0 -82 -18v6v-656q-44 -76 -128.5 -122t-154.5 -46 q-141 0 -198.5 78t-57.5 260v478q0 7 -31 13.5t-65 6.5q-70 0 -70 -20zM231 1309q0 31 31 72.5t45 41.5h2l301 -155q41 -23 41 -58q0 -28 -21 -51.5t-36 -23.5l-350 145q-13 8 -13 29z" />
<glyph unicode="&#xfa;" horiz-adv-x="1124" d="M129 553l4 408q0 20 70 20q34 0 65 -6.5t31 -13.5v-478q0 -182 57.5 -260t198.5 -78q70 0 154.5 46t128.5 122v656v-6q0 18 82 18q86 0 86 -18l2 -940q-1 -2 -4 -6t-24 -11.5t-56 -11.5q-8 -2 -23 -2q-25 0 -40.5 8.5t-18.5 17.5l-2 9v151q-28 -44 -56 -77t-66.5 -64 t-88 -47.5t-107.5 -16.5q-64 0 -113.5 10.5t-104.5 46t-91 96.5t-60 170t-24 257zM461 1210q0 37 41 58l301 155h2q14 0 45 -41.5t31 -72.5q0 -19 -13 -29l-350 -145q-15 0 -36 23.5t-21 51.5z" />
<glyph unicode="&#xfb;" horiz-adv-x="1122" d="M129 553l4 408q0 20 70 20q34 0 65 -6.5t31 -13.5v-478q0 -182 57.5 -260t198.5 -78q70 0 154.5 46t128.5 122v656v-6q0 18 82 18q86 0 86 -18l2 -940q-1 -2 -4 -6t-24 -11.5t-56 -11.5q-8 -2 -23 -2q-25 0 -40.5 8.5t-18.5 17.5l-2 9v151q-28 -44 -56 -77t-66.5 -64 t-88 -47.5t-107.5 -16.5q-64 0 -113.5 10.5t-104.5 46t-91 96.5t-60 170t-24 257zM281 1255q0 22 14 33l256 133q4 2 29 2q22 0 28 -2l248 -135q14 -11 14 -31q0 -27 -26.5 -59.5t-40.5 -32.5h-2l-221 129l-236 -129h-2q-14 0 -37.5 32.5t-23.5 59.5z" />
<glyph unicode="&#xfc;" horiz-adv-x="1107" d="M117 553l4 408q0 20 69 20q34 0 65.5 -6.5t31.5 -13.5v-478q0 -182 57.5 -260t198.5 -78q70 0 154 46t128 122v656v-6q0 18 82 18q86 0 86 -18l2 -940q-1 -2 -4 -6t-24 -11.5t-56 -11.5q-8 -2 -22 -2q-25 0 -40.5 8.5t-18.5 17.5l-3 9v151q-28 -44 -55.5 -76.5t-66 -64 t-88 -48t-107.5 -16.5q-64 0 -113.5 10.5t-104.5 46t-91 96.5t-60 170t-24 257zM276 1243v12q0 37 26 62.5t63 25.5h12q35 0 59.5 -25.5t24.5 -62.5v-12q0 -37 -24.5 -61.5t-59.5 -24.5h-12q-37 0 -63 25t-26 61zM670 1243v12q0 37 25.5 62.5t62.5 25.5h12q36 0 60 -25.5 t24 -62.5v-12q0 -37 -23.5 -61.5t-60.5 -24.5h-12q-37 0 -62.5 24.5t-25.5 61.5z" />
<glyph unicode="&#xfd;" horiz-adv-x="1122" d="M92 946q0 3 7.5 10t35 16t68.5 9q27 0 44.5 -9.5t20.5 -18.5l4 -9l326 -715l279 742q0 16 28 16q35 0 77 -18.5t42 -38.5q0 -6 -2 -8q-124 -324 -216.5 -585.5t-136.5 -379.5t-114 -266q-30 -63 -77 -106.5t-99.5 -62t-92 -25.5t-79.5 -7l-47 2q-17 29 -17 68q0 32 17 65 q78 0 140.5 33.5t98.5 81t60.5 109.5t33.5 109.5t11 90.5l-406 887q-6 4 -6 10zM440 1210q0 37 41 58l301 155h2q14 0 45 -41.5t31 -72.5q0 -20 -12 -29l-350 -145q-15 0 -36.5 23.5t-21.5 51.5z" />
<glyph unicode="&#xfe;" horiz-adv-x="1052" d="M141 1368q0 8 32.5 19.5t62.5 11.5q52 0 57 -31l2 -502q2 -4 6 -16q143 143 301 143q150 0 253 -123.5t103 -308.5q0 -136 -38.5 -243.5t-107 -176t-160 -104t-199.5 -35.5q-43 0 -87 17t-69 42l-2 -426q0 -19 -23 -28.5t-55 -9.5q-30 0 -52 8t-22 22zM297 254 q3 -4 8.5 -11t26 -24t44 -30t62 -24t80.5 -11q112 0 194.5 96.5t82.5 247.5q0 155 -59 244t-165 89q-46 0 -91 -12t-76 -29t-55.5 -34t-36.5 -29l-11 -12z" />
<glyph unicode="&#xff;" horiz-adv-x="1079" d="M57 946q0 3 7.5 10t35 16t68.5 9q27 0 44.5 -9.5t21.5 -18.5l4 -9l325 -715l279 742q0 16 28 16q35 0 77 -18.5t42 -38.5q0 -6 -2 -8q-124 -324 -216.5 -585.5t-136.5 -379.5t-114 -266q-30 -63 -77 -106.5t-99.5 -62t-92 -25.5t-79.5 -7l-47 2q-16 29 -16 68q0 34 16 65 q78 0 140.5 33.5t98.5 81t60.5 109.5t33.5 109.5t11 90.5l-406 887q-6 4 -6 10zM293 1243v12q0 37 25.5 62.5t62.5 25.5h12q35 0 59.5 -25.5t24.5 -62.5v-12q0 -37 -24.5 -61.5t-59.5 -24.5h-12q-37 0 -62.5 24.5t-25.5 61.5zM645 1243v12q0 37 25.5 62.5t62.5 25.5h12 q36 0 60 -25.5t24 -62.5v-12q0 -37 -23.5 -61.5t-60.5 -24.5h-12q-37 0 -62.5 24.5t-25.5 61.5z" />
<glyph unicode="&#x152;" horiz-adv-x="2091" d="M141 725q0 146 45.5 279.5t122 229.5t182.5 153t222 57q135 0 252.5 -74t197.5 -203q124 273 664 273q16 0 41 1.5t36.5 2t27 -3.5t22 -14t11.5 -29.5t5 -50.5q0 -46 -12 -46q-8 0 -32 1.5t-40 1.5q-48 0 -96 -2.5t-109 -10t-114 -19.5t-106 -34t-90 -50t-60 -70t-23 -93 q0 -21 2 -31v-143h443q45 0 45 -70q0 -33 -12 -61.5t-27 -28.5l-449 -2v-346q0 -46 29.5 -81t75 -54.5t110 -32t122.5 -16.5t124 -4q51 0 102.5 2.5t76.5 5.5l26 2q35 0 35 -70q0 -32 -10 -60t-23 -28q-8 0 -83.5 -3t-135.5 -3q-522 0 -598 246q-79 -114 -190.5 -178 t-237.5 -64q-155 0 -286.5 96.5t-208.5 262.5t-77 362zM299 694q0 -143 50.5 -263t140.5 -190.5t198 -70.5q86 0 166 45.5t139.5 123t95 186.5t35.5 229q0 144 -50.5 266.5t-140.5 195t-198 72.5q-107 0 -202 -70t-156.5 -191.5t-73.5 -266.5q-4 -46 -4 -66z" />
<glyph unicode="&#x153;" horiz-adv-x="1845" d="M119 514q0 139 65 251t175 173t241 61q122 0 225 -53t170 -147q62 101 165 158t229 57q166 0 261 -79.5t95 -254.5q0 -60 -29 -101.5t-76 -60.5t-88 -26t-84 -7h-376q0 -94 31 -167.5t82.5 -115.5t111.5 -63.5t125 -21.5q130 0 209 49q1 0 4 1t4 1q22 0 40.5 -40.5 t18.5 -72.5q0 -24 -35.5 -41t-92 -25t-106.5 -11t-98 -3q-122 0 -223 61t-164 165q-66 -105 -171.5 -166.5t-229.5 -61.5q-206 0 -342.5 144.5t-136.5 396.5zM281 508q0 -171 86 -279t227 -108q154 0 240 106.5t88 274.5v6q0 159 -96 252.5t-232 93.5q-129 0 -221 -101 t-92 -245zM1092 614h378q68 0 95.5 36.5t27.5 84.5q0 72 -63 104.5t-166 32.5q-99 0 -185.5 -81.5t-86.5 -176.5z" />
<glyph unicode="&#x178;" horiz-adv-x="1286" d="M88 1346v2q0 16 44.5 53t74.5 37q12 0 22 -13l357 -598l504 594q6 9 18 9q28 0 67 -46t39 -65v-2l-544 -645v-666q-52 -10 -99 -10q-45 0 -65 10v653zM340 1677v13q0 37 25.5 62.5t62.5 25.5h12q35 0 59.5 -25.5t24.5 -62.5v-13q0 -37 -24.5 -61.5t-59.5 -24.5h-12 q-37 0 -62.5 24.5t-25.5 61.5zM692 1677v13q0 37 25.5 62.5t62.5 25.5h13q36 0 60 -25.5t24 -62.5v-13q0 -37 -23.5 -61.5t-60.5 -24.5h-13q-37 0 -62.5 24.5t-25.5 61.5z" />
<glyph unicode="&#x2c6;" horiz-adv-x="868" d="M160 1255q0 22 14 33l256 133q4 2 29 2q22 0 28 -2l248 -135q15 -12 15 -31q0 -27 -27 -59.5t-41 -32.5h-2l-221 129l-236 -129h-2q-14 0 -37.5 32.5t-23.5 59.5z" />
<glyph unicode="&#x2dc;" horiz-adv-x="808" d="M86 1298q0 11 4 15q0 3 13 15t46 26t72 14q92 0 205 -74q34 -22 68 -22q13 0 25 3t22.5 8.5t20 12.5t17.5 15t14.5 15.5t12 15.5t8.5 13l6 10l3 5q2 2 8 2q23 0 57.5 -40t34.5 -66q0 -9 -4 -13q-3 -4 -8 -11t-22.5 -25t-37 -32t-50.5 -25t-64 -11q-38 0 -136.5 45 t-126.5 45q-31 0 -55.5 -12.5t-33.5 -24.5l-9 -12q-8 -4 -12 -4q-25 0 -51.5 41.5t-26.5 70.5z" />
<glyph unicode="&#x2000;" horiz-adv-x="1016" />
<glyph unicode="&#x2001;" horiz-adv-x="2032" />
<glyph unicode="&#x2002;" horiz-adv-x="1016" />
<glyph unicode="&#x2003;" horiz-adv-x="2032" />
<glyph unicode="&#x2004;" horiz-adv-x="677" />
<glyph unicode="&#x2005;" horiz-adv-x="508" />
<glyph unicode="&#x2006;" horiz-adv-x="338" />
<glyph unicode="&#x2007;" horiz-adv-x="338" />
<glyph unicode="&#x2008;" horiz-adv-x="254" />
<glyph unicode="&#x2009;" horiz-adv-x="406" />
<glyph unicode="&#x200a;" horiz-adv-x="112" />
<glyph unicode="&#x2010;" horiz-adv-x="819" d="M86 694q0 32 8.5 56t22.5 24l538 2q8 0 19.5 -35t11.5 -67q0 -57 -31 -62l-530 -2q-19 0 -29 24.5t-10 59.5z" />
<glyph unicode="&#x2011;" horiz-adv-x="819" d="M86 694q0 32 8.5 56t22.5 24l538 2q8 0 19.5 -35t11.5 -67q0 -57 -31 -62l-530 -2q-19 0 -29 24.5t-10 59.5z" />
<glyph unicode="&#x2012;" horiz-adv-x="819" d="M86 694q0 32 8.5 56t22.5 24l538 2q8 0 19.5 -35t11.5 -67q0 -57 -31 -62l-530 -2q-19 0 -29 24.5t-10 59.5z" />
<glyph unicode="&#x2013;" horiz-adv-x="1001" d="M70 694q0 32 8 56t22 24l760 2q8 0 19.5 -35t11.5 -67q0 -57 -31 -62l-751 -2q-19 0 -29 24.5t-10 59.5z" />
<glyph unicode="&#x2014;" horiz-adv-x="1236" d="M70 694q0 32 8 56t22 24l1006 2q8 0 19.5 -35t11.5 -67q0 -57 -31 -62l-997 -2q-19 0 -29 24.5t-10 59.5z" />
<glyph unicode="&#x2018;" horiz-adv-x="643" d="M143 1312v5q0 47 32.5 81t78.5 34h16q47 0 81 -34t34 -81v-17q0 -46 -30.5 -77.5t-75.5 -34.5q11 -54 34.5 -90.5t52 -50.5t46 -18.5t32.5 -4.5q5 0 5 -53v-19q-63 0 -113.5 17.5t-82 42.5t-54 63.5t-33 69t-16.5 71t-6.5 57.5t-0.5 39z" />
<glyph unicode="&#x2019;" horiz-adv-x="630" d="M150 971q0 53 6 53q11 0 23.5 2t35.5 11.5t42 25.5t37.5 48.5t27.5 76.5q-45 3 -76 34.5t-31 77.5v17q0 47 34 81t81 34h16q46 0 78.5 -34t32.5 -81v-5q0 -22 -0.5 -39.5t-6 -57.5t-16 -71t-33.5 -69t-54 -63t-81.5 -42.5t-113.5 -17.5q-2 7 -2 19z" />
<glyph unicode="&#x201a;" horiz-adv-x="344" d="M45 -203l2 35q3 0 14 4t29.5 15.5t35 29t28.5 48t12 67.5l-4 4q-27 9 -42.5 31.5t-15.5 52.5v12q0 37 26 62.5t63 25.5h12q43 0 66.5 -33.5t23.5 -91.5q0 -36 -2 -59q-5 -68 -76.5 -140.5t-169.5 -72.5q-2 4 -2 10z" />
<glyph unicode="&#x201c;" horiz-adv-x="714" d="M70 1151v5q0 22 0.5 39.5t6 57.5t16 71t33.5 69t54 63t81.5 42.5t113.5 17.5v-19q0 -53 -4 -53q-11 0 -23.5 -2t-35.5 -11.5t-42 -25.5t-37.5 -48.5t-27.5 -76.5q45 -3 75.5 -34.5t30.5 -78.5v-16q0 -47 -33.5 -81t-80.5 -34h-17q-46 0 -78 34t-32 81zM393 1151v5 q0 22 0.5 39.5t6 57.5t16 71t33.5 69t54 63t81.5 42.5t113.5 17.5v-19q0 -53 -4 -53q-11 0 -23.5 -2t-35.5 -11.5t-42 -25.5t-37.5 -48.5t-27.5 -76.5q45 -3 76 -35t31 -78v-16q0 -47 -34 -81t-81 -34h-16q-46 0 -78.5 34t-32.5 81z" />
<glyph unicode="&#x201d;" horiz-adv-x="749" d="M49 1055q0 53 6 53q11 0 23.5 2t35.5 11.5t42 25.5t37.5 48.5t27.5 76.5q-45 3 -75.5 34.5t-30.5 77.5v17q0 47 33.5 81t80.5 34h17q46 0 78 -34t32 -81v-5q0 -22 -0.5 -39.5t-6 -57.5t-16 -71t-33.5 -69t-54 -63t-81.5 -42.5t-113.5 -17.5q-2 7 -2 19zM373 1055 q0 53 6 53q11 0 23.5 2t35.5 11.5t42 25.5t37.5 48.5t27.5 76.5q-45 3 -76 34.5t-31 77.5v17q0 47 34 81t81 34h16q46 0 78.5 -34t32.5 -81v-5q0 -22 -0.5 -39.5t-6 -57.5t-16 -71t-33.5 -69t-54 -63t-81.5 -42.5t-113.5 -17.5q-2 7 -2 19z" />
<glyph unicode="&#x201e;" horiz-adv-x="710" d="M80 -203l2 35q3 0 14 4t29.5 15.5t35 29t28.5 48t12 67.5l-4 4q-27 9 -42.5 31.5t-15.5 52.5v12q0 37 25.5 62.5t62.5 25.5h13q43 0 66.5 -33.5t23.5 -91.5q0 -36 -2 -59q-5 -68 -76.5 -140.5t-169.5 -72.5q-2 4 -2 10zM352 -203l2 35q3 0 14 4t29.5 15.5t35 29t28.5 48 t12 67.5l-4 4q-57 20 -57 84v12q0 37 25.5 62.5t62.5 25.5h12q43 0 66.5 -33.5t23.5 -91.5q0 -36 -2 -59q-5 -68 -76.5 -140.5t-169.5 -72.5q-2 4 -2 10z" />
<glyph unicode="&#x2022;" horiz-adv-x="598" d="M117 698v25q0 72 50.5 122t123.5 50h24q69 0 118.5 -50t49.5 -122v-25q0 -75 -49 -124.5t-119 -49.5h-24q-74 0 -124 49t-50 125z" />
<glyph unicode="&#x2026;" horiz-adv-x="1916" d="M256 109v16q0 47 34 81t81 34h16q46 0 78.5 -34t32.5 -81v-16q0 -49 -32.5 -81t-78.5 -32h-16q-48 0 -81.5 32t-33.5 81zM823 109v16q0 47 34 81t81 34h16q46 0 78.5 -34t32.5 -81v-16q0 -49 -32.5 -81t-78.5 -32h-16q-48 0 -81.5 32t-33.5 81zM1384 109v16q0 47 34 81 t81 34h17q46 0 78 -34t32 -81v-16q0 -49 -32 -81t-78 -32h-17q-48 0 -81.5 32t-33.5 81z" />
<glyph unicode="&#x202f;" horiz-adv-x="406" />
<glyph unicode="&#x2039;" horiz-adv-x="720" d="M160 514q0 17 4 29l291 379q11 14 30 14q28 0 61.5 -24t33.5 -38v-2l-287 -358l280 -344v-2q0 -14 -33 -41t-61 -27q-16 0 -28 15l-287 370q-4 8 -4 29z" />
<glyph unicode="&#x203a;" horiz-adv-x="604" d="M104 872v2q0 14 33 38t60 24q21 0 32 -14l291 -379q2 -6 2 -29q0 -25 -2 -29l-287 -370q-12 -15 -30 -15q-27 0 -59.5 27t-32.5 41v2l280 344z" />
<glyph unicode="&#x205f;" horiz-adv-x="508" />
<glyph unicode="&#x20ac;" horiz-adv-x="1419" d="M109 561q0 28 8 48t22 20l162 2q-2 20 -2 61q0 21 1 62.5t1 60.5l-154 -2q-19 0 -28.5 20t-9.5 48t8 47.5t22 19.5l176 2q37 251 156.5 379.5t298.5 128.5q105 0 221.5 -34t180.5 -68l65 -33l-6 -131q-9 4 -25.5 11t-69 25t-105.5 32t-128.5 25t-144.5 11 q-97 0 -170.5 -93.5t-104.5 -252.5h484q2 0 6 -12t7 -31.5t3 -36.5q0 -42 -16 -55h-502q-4 -74 -4 -113q0 -48 2 -71h504q16 -45 16 -86q0 -36 -16 -49h-492q58 -359 283 -359q107 0 195.5 8t137.5 20t83 24t46 20l11 8v-133q-4 -4 -13.5 -11.5t-46.5 -26.5t-84.5 -33 t-132 -26t-184.5 -12q-89 0 -161 27t-122 73.5t-86.5 114t-57.5 142.5t-32 164l-164 -2q-19 0 -28.5 19.5t-9.5 47.5z" />
<glyph unicode="&#x2122;" horiz-adv-x="1017" d="M111 1391q0 22 6 32l4 7h6q14 2 152 2q137 0 155 -2h10l2 -11q3 -9 3 -28l-5 -29h-131v-344q0 -19 -34 -19q-37 0 -37 19v344h-113q-7 0 -14 10q0 3 -4 19zM500 1008v407q0 25 48 22l5 -1q12 0 18 -17l136 -243l135 245q9 15 37 15q15 0 26 -11l4 -4v-415q-2 -2 -18 -5.5 t-23 -3.5q-12 0 -22 7l-8 4v268l-109 -193q-10 -10 -31 -10q-17 0 -22 12l-101 172v-251q-1 0 -9 -2t-18.5 -4.5t-15.5 -2.5q-10 0 -24 7z" />
<glyph unicode="&#x25fc;" horiz-adv-x="983" d="M0 0v983h983v-983h-983z" />
</font>
</defs>
</svg>
